<svg width="200" height="200" viewBox="0 0 200 200" fill="none" xmlns="http://www.w3.org/2000/svg">
<mask id="mask0_422_7050" style="mask-type:luminance" maskUnits="userSpaceOnUse" x="0" y="0" width="200" height="200">
<path d="M200 0H0V200H200V0Z" fill="white"/>
</mask>
<g mask="url(#mask0_422_7050)">
<path d="M116.015 33.3299C116.015 33.3299 162.972 40.6599 159.412 107.412C159.399 107.66 164.841 111.264 165.267 111.649C169.062 115.074 172.246 119.459 173.639 124.588C178.596 142.855 160.871 161.677 146.537 166.672C141.183 168.538 135.524 169.444 129.854 169.608C92.9922 170.679 44.1894 147.307 41.683 101.661C41.5938 100.025 41.5705 98.3859 41.6133 96.7481C41.8352 88.0811 43.9321 79.6402 47.0922 71.8027C47.0908 71.803 67.606 21.0384 116.015 33.3299Z" fill="#E2BA87"/>
<g style="mix-blend-mode:multiply" opacity="0.1">
<path d="M160.6 108.117C160.092 109.36 159.584 110.948 159.442 111.857C158.837 115.753 160.173 119.777 162.494 122.669C164.699 125.416 167.847 127.197 170.895 127.869C171.924 128.095 173.171 128.212 174.26 128.249C173.115 116.964 163.906 110.193 160.6 108.117ZM94.4088 137.775C103.131 135.903 108.547 126.735 106.505 117.298C104.462 107.86 95.7362 101.727 87.014 103.599C78.2917 105.471 72.8761 114.639 74.9183 124.077C76.9604 133.514 85.6866 139.647 94.4088 137.775Z" fill="#DC2400"/>
</g>
<path opacity="0.1" d="M137.11 111.378C137.11 111.378 144.559 104.307 150.326 110.955L137.11 111.378Z" fill="black"/>
<path d="M67.656 146.609C42.8599 159.007 20.3547 127.918 27.5633 110.442C32.1616 99.2948 45.5689 98.4281 53.338 108.61C57.923 114.62 61.6328 122.301 63.7393 129.65" fill="#E2BA87"/>
<path opacity="0.1" d="M47.2327 118.866C50.4231 122.105 52.9878 126.908 56.1401 129.587C55.5575 125.104 54.6276 120.317 52.4446 116.276C50.2284 112.173 46.1977 108.793 42.0937 109.071C37.0079 109.417 32.8203 115.326 32.2817 120.684C32.6034 117.478 39.0687 115.308 41.5361 115.612C45.4003 122.878 46.8964 137.198 46.8964 137.198C50.1154 129.091 48.812 122.715 47.2327 118.866Z" fill="black"/>
<path d="M148.001 123.64C149.075 124.257 156.583 114.826 161.582 117.695C163.269 118.664 164.557 120.316 165.524 122.101C167.648 126.028 168.375 130.799 167.519 135.2C166.308 141.423 162.11 146.517 157.173 149.894C143.886 158.979 133.346 157.262 119.165 152.003C108.002 147.864 92.7938 139.345 95.9445 123.974C101.491 96.9167 147.987 123.633 148.001 123.64Z" fill="#873C41"/>
<path d="M109.534 121.911C113.145 124.153 117.542 124.384 121.485 123.49C122.239 123.318 122.845 123.951 123.033 124.679C124.958 132.162 135.875 136.068 141.349 131.27C141.774 130.897 142.527 130.809 142.973 131.231C145.927 134.035 150.661 134.796 154.138 132.899C159.047 130.22 159.023 122.694 157.686 117.452C153.359 118.774 148.817 124.109 148.001 123.639C147.99 123.632 119.447 107.237 104.419 113.151C104.738 116.785 106.406 119.968 109.534 121.911Z" fill="white"/>
<path d="M150.474 151.016C142.667 143.849 133.067 139.847 123.334 137.006C115.008 134.576 105.634 133.002 97.207 135.413C101.112 143.797 111.16 149.033 119.164 152.001C131.57 156.601 141.189 158.49 152.296 152.812C151.691 152.211 151.101 151.592 150.474 151.016Z" fill="#EE7E8B"/>
<mask id="mask1_422_7050" style="mask-type:alpha" maskUnits="userSpaceOnUse" x="95" y="111" width="73" height="46">
<path d="M148.001 123.64C149.075 124.257 156.583 114.826 161.582 117.695C163.269 118.664 164.557 120.316 165.524 122.101C167.648 126.028 168.375 130.799 167.52 135.2C166.308 141.423 162.111 146.517 157.173 149.894C143.886 158.979 133.346 157.262 119.165 152.003C108.002 147.864 92.7935 139.345 95.9446 123.974C101.491 96.9167 147.987 123.633 148.001 123.64Z" fill="#873C41"/>
</mask>
<g mask="url(#mask1_422_7050)">
<path fill-rule="evenodd" clip-rule="evenodd" d="M105.085 111.207C105.13 111.153 105.185 111.109 105.247 111.076C105.309 111.043 105.377 111.022 105.447 111.016C105.517 111.009 105.587 111.016 105.654 111.037C105.721 111.058 105.784 111.091 105.838 111.136C106.651 111.81 108.207 112.721 109.956 113.66C111.531 114.504 113.222 115.349 114.588 116.032L114.996 116.235C120.496 118.987 128.972 121.903 133.397 123.426L134.162 123.69C139.313 125.466 145.647 127.398 152.491 127.401C153.476 127.343 154.185 127.256 154.944 127.043C155.712 126.826 156.552 126.473 157.788 125.854C157.914 125.795 158.058 125.788 158.189 125.834C158.321 125.88 158.429 125.975 158.491 126.1C158.554 126.224 158.565 126.368 158.523 126.501C158.481 126.634 158.388 126.745 158.266 126.81C157.009 127.439 156.098 127.827 155.234 128.071C154.364 128.317 153.563 128.409 152.538 128.469C152.528 128.469 152.517 128.47 152.507 128.47C145.468 128.47 138.986 126.484 133.814 124.7L133.038 124.433C128.625 122.914 120.086 119.976 114.518 117.192L114.11 116.987C112.745 116.306 111.041 115.454 109.452 114.602C107.714 113.67 106.064 112.711 105.157 111.96C105.103 111.915 105.058 111.86 105.025 111.798C104.992 111.736 104.972 111.668 104.965 111.598C104.959 111.528 104.966 111.458 104.986 111.391C105.007 111.324 105.041 111.261 105.085 111.207Z" fill="#C4C4C4"/>
<path d="M153.806 125.639L150.961 125.481C150.569 125.459 150.233 125.76 150.211 126.153L150.053 128.999C150.032 129.392 150.332 129.728 150.725 129.75L153.57 129.907C153.963 129.929 154.299 129.628 154.32 129.235L154.478 126.389C154.5 125.997 154.199 125.66 153.806 125.639Z" fill="#A09E9E"/>
<path d="M135.685 122.445L132.933 121.707C132.553 121.605 132.162 121.831 132.061 122.211L131.323 124.964C131.221 125.344 131.447 125.735 131.827 125.837L134.579 126.574C134.959 126.676 135.349 126.451 135.451 126.07L136.189 123.318C136.29 122.937 136.065 122.547 135.685 122.445Z" fill="#A09E9E"/>
<path d="M116.996 115.623L114.443 114.358C114.09 114.183 113.663 114.328 113.488 114.68L112.224 117.234C112.049 117.587 112.193 118.014 112.546 118.189L115.099 119.454C115.451 119.628 115.878 119.484 116.053 119.132L117.318 116.578C117.492 116.225 117.348 115.798 116.996 115.623Z" fill="#A09E9E"/>
</g>
<path d="M151.041 94.366C152.429 95.0037 154.342 95.7607 156.224 96.2021C156.791 97.3143 157.114 98.6392 157.111 99.8604C157.103 102.697 155.808 105.743 152.499 105.395C149.721 105.103 149.014 101.484 149.018 99.7026C149.024 97.5256 149.794 95.4319 151.041 94.366ZM113.403 97.1308C113.262 97.8365 113.191 98.5546 113.191 99.2744C113.179 103.711 115.394 106.039 118.722 106.921C123.346 107.622 125.575 104.187 125.586 99.9559C125.592 97.4971 124.563 95.0706 122.958 93.4711C120.963 94.998 117.817 96.5719 113.403 97.1308Z" fill="#2A1200"/>
<path d="M123.605 77.6094C118.721 78.3279 114.294 81.6436 112.069 86.2249C111.352 87.7019 111.689 89.8113 113.221 90.7358C114.638 91.5918 116.645 91.3542 117.412 89.7714C117.639 89.2982 117.893 88.8386 118.174 88.3948C118.261 88.2573 118.536 87.9755 118.593 87.7949C118.639 87.7383 118.683 87.682 118.731 87.6264C119.022 87.2817 119.33 86.952 119.655 86.6385C119.84 86.4606 120.03 86.2878 120.225 86.1205C120.287 86.0682 120.349 86.0172 120.412 85.9656C120.598 85.8687 120.791 85.6898 120.956 85.5833C121.545 85.2033 122.164 84.8726 122.807 84.5947C122.864 84.5701 122.921 84.547 122.979 84.5235C123.207 84.4526 123.432 84.376 123.664 84.3129C124.156 84.1807 124.656 84.0778 125.16 84.0048C126.739 83.7729 127.827 81.801 127.357 80.1633C126.837 78.3618 125.296 77.3611 123.605 77.6094ZM159.347 85.698C158.23 82.9022 156.102 80.7137 153.497 79.5745C152.793 79.2674 151.866 79.3315 151.169 79.676C150.483 80.0155 149.794 80.7458 149.544 81.5271C149.284 82.3382 149.223 83.2641 149.573 84.0425C149.928 84.832 150.477 85.4152 151.24 85.75C151.365 85.8045 151.483 85.8737 151.605 85.9349C151.955 86.1654 152.287 86.4228 152.597 86.7048C152.939 87.0899 153.246 87.5054 153.513 87.9463C153.594 88.1166 153.685 88.2826 153.756 88.4597C154.062 89.2249 154.7 89.8765 155.423 90.1672C156.115 90.4454 157.066 90.4411 157.751 90.0646C158.46 89.6745 159.108 89.0493 159.376 88.2135C159.643 87.3806 159.671 86.5078 159.347 85.698Z" fill="#71472D"/>
<path d="M41.0324 96.4069C40.9861 98.0481 41.0039 99.693 41.0905 101.336C54.8041 103.614 61.2662 118.181 62.7829 125.179C62.7829 125.179 66.8642 125.407 67.8265 124.631C72.8757 122 81.8702 111.24 77.4578 89.2516C75.3213 79.2571 76.7815 71.2918 94.4603 58.8541C112.139 46.4163 140.215 54.1003 145.966 58.7291C150.568 62.4321 151.056 62.9975 152.446 63.8899C140.208 36.2266 116.17 32.5953 116.17 32.5953C67.413 20.3814 46.6138 71.3654 46.6152 71.365C43.4114 79.2364 41.2775 87.7103 41.0324 96.4069Z" fill="#3A1A00"/>
</g>
</svg>
