<svg width="200" height="200" viewBox="0 0 200 200" fill="none" xmlns="http://www.w3.org/2000/svg">
<mask id="mask0_422_7115" style="mask-type:luminance" maskUnits="userSpaceOnUse" x="0" y="0" width="200" height="200">
<path d="M200 0H0V200H200V0Z" fill="white"/>
</mask>
<g mask="url(#mask0_422_7115)">
<path d="M116.015 33.3299C116.015 33.3299 162.972 40.6599 159.412 107.412C159.399 107.66 164.841 111.264 165.267 111.649C169.062 115.074 172.246 119.459 173.639 124.588C178.596 142.855 160.871 161.677 146.537 166.672C141.183 168.538 135.524 169.444 129.854 169.608C92.9922 170.679 44.1894 147.307 41.683 101.661C41.5938 100.025 41.5705 98.3859 41.6133 96.7481C41.8352 88.0811 43.9321 79.6402 47.0922 71.8027C47.0908 71.803 67.606 21.0384 116.015 33.3299Z" fill="#8C5A2B"/>
<g style="mix-blend-mode:multiply" opacity="0.1">
<path d="M160.6 108.117C160.092 109.36 159.584 110.948 159.442 111.857C158.837 115.753 160.173 119.777 162.494 122.669C164.699 125.416 167.847 127.197 170.895 127.869C171.924 128.095 173.171 128.212 174.26 128.249C173.115 116.964 163.906 110.193 160.6 108.117ZM94.4088 137.775C103.131 135.903 108.547 126.735 106.505 117.298C104.462 107.86 95.7362 101.727 87.014 103.599C78.2917 105.471 72.8761 114.639 74.9183 124.077C76.9604 133.514 85.6866 139.647 94.4088 137.775Z" fill="#DC2400"/>
</g>
<path opacity="0.1" d="M137.11 111.378C137.11 111.378 144.559 104.307 150.326 110.955L137.11 111.378Z" fill="black"/>
<path d="M67.656 146.609C42.8599 159.007 20.3547 127.918 27.5633 110.442C32.1616 99.2948 45.5689 98.4281 53.338 108.61C57.923 114.62 61.6328 122.301 63.7393 129.65" fill="#8C5A2B"/>
<path opacity="0.1" d="M47.2327 118.866C50.4231 122.105 52.9878 126.908 56.1401 129.587C55.5575 125.104 54.6276 120.317 52.4446 116.276C50.2284 112.173 46.1977 108.793 42.0937 109.071C37.0079 109.417 32.8203 115.326 32.2817 120.684C32.6034 117.478 39.0687 115.308 41.5361 115.612C45.4003 122.878 46.8964 137.198 46.8964 137.198C50.1154 129.091 48.812 122.715 47.2327 118.866Z" fill="black"/>
<path d="M145.137 128.42C148.468 128.512 151.662 127.559 154.413 124.699C155.853 123.204 157.312 122.381 159.378 123.66C164.323 126.723 165.487 134.375 164.158 139.505C162.698 145.135 158.302 149.674 153.236 152.634C139.604 160.6 129.147 158.807 115.197 153.715C104.216 149.708 89.3714 141.631 93.1343 127.73C97.7943 110.517 117.877 118.781 129.209 123.425C134.021 125.398 139.757 128.27 145.137 128.42Z" fill="white"/>
<mask id="mask1_422_7115" style="mask-type:alpha" maskUnits="userSpaceOnUse" x="92" y="117" width="73" height="42">
<path d="M145.137 128.42C148.468 128.512 151.662 127.559 154.413 124.699C155.853 123.204 157.312 122.381 159.378 123.66C164.323 126.723 165.487 134.375 164.158 139.505C162.698 145.135 158.302 149.674 153.236 152.634C139.604 160.6 129.147 158.807 115.197 153.715C104.216 149.708 89.3714 141.631 93.1343 127.73C97.7943 110.517 117.877 118.781 129.209 123.425C134.021 125.398 139.757 128.27 145.137 128.42Z" fill="white"/>
</mask>
<g mask="url(#mask1_422_7115)">
<path fill-rule="evenodd" clip-rule="evenodd" d="M99.6555 147.538L113.927 111.51L115.913 112.298L101.642 148.326L99.6555 147.538ZM128.98 159.179L138.837 121.375L140.904 121.914L131.047 159.719L128.98 159.179ZM158.318 150.051L152.879 122.335L154.976 121.924L160.414 149.64L158.318 150.051Z" fill="#D1D3D4"/>
</g>
<path d="M130.05 97.8024C130.04 103.062 126.727 107.333 119.844 106.46C114.89 105.362 112.27 103.317 112.281 97.8003C112.292 92.0201 115.033 88.1854 119.881 87.4109C127.32 86.2232 130.06 92.542 130.05 97.8024ZM157.198 96.5448C157.191 100.739 155.477 105.243 151.087 104.726C147.403 104.293 146.462 98.9406 146.466 96.3058C146.474 91.697 148.559 87.3429 151.603 87.3358C154.876 87.3283 157.205 92.3507 157.198 96.5448Z" fill="#2A1200"/>
<path d="M151.146 90.5164C151.237 90.1619 151.727 90.1331 151.828 90.4758L152.763 93.6421C152.786 93.7211 152.837 93.7889 152.907 93.8327C152.976 93.8765 153.06 93.8934 153.141 93.8801L154.93 93.6054C155.222 93.5609 155.423 93.8726 155.27 94.1327L153.78 96.6674C153.754 96.7105 153.738 96.7585 153.731 96.8083C153.725 96.8582 153.729 96.9088 153.743 96.957L154.662 100.072C154.768 100.427 154.323 100.707 154.067 100.447L152.767 99.128C152.621 98.9809 152.377 98.9991 152.241 99.1672L150.243 101.635C150.022 101.909 149.595 101.752 149.62 101.406L149.882 97.7326C149.886 97.6835 149.879 97.6342 149.863 97.5878C149.846 97.5415 149.82 97.4993 149.785 97.464L147.809 95.4608C147.607 95.2552 147.736 94.8926 148.028 94.8477L149.869 94.5655C150.015 94.5431 150.136 94.4327 150.173 94.2873L151.146 90.5164ZM121.174 90.0586C121.295 89.7636 121.712 89.7633 121.833 90.0579L123.52 94.1616C123.549 94.2341 123.602 94.2948 123.67 94.3342C123.738 94.3736 123.817 94.3896 123.894 94.3796L127.334 93.9389C127.66 93.8972 127.864 94.2816 127.647 94.5278L125.081 97.4373C125.037 97.4871 125.007 97.5482 124.996 97.6138C124.985 97.6793 124.993 97.7467 125.018 97.8081L126.607 101.674C126.741 102 126.371 102.302 126.079 102.105L123.093 100.092C123.029 100.049 122.953 100.028 122.876 100.032C122.799 100.036 122.725 100.065 122.666 100.114L118.56 103.556C118.31 103.765 117.934 103.557 117.978 103.234L118.576 98.8384C118.585 98.7725 118.576 98.7054 118.548 98.6447C118.521 98.584 118.478 98.5321 118.422 98.495L115.206 96.3265C114.934 96.143 115.034 95.7194 115.36 95.6777L118.865 95.2289C118.928 95.2208 118.987 95.1964 119.037 95.1579C119.087 95.1195 119.126 95.0685 119.15 95.0101L121.174 90.0586Z" fill="white"/>
<path d="M125.858 76.1175C121.125 74.7107 115.714 75.8521 111.767 79.0697C110.495 80.1071 109.912 82.162 110.912 83.6461C111.836 85.0195 113.756 85.6497 115.118 84.5375C115.524 84.2043 115.948 83.8948 116.39 83.6105C116.527 83.5225 116.895 83.3821 117.022 83.2429C117.088 83.2108 117.152 83.1787 117.219 83.1481C117.628 82.9581 118.046 82.789 118.473 82.6415C118.715 82.5581 118.96 82.4816 119.208 82.4121C119.286 82.3907 119.364 82.3704 119.443 82.3504C119.653 82.3408 119.903 82.26 120.097 82.2329C120.791 82.1365 121.492 82.0976 122.192 82.1164C122.254 82.1182 122.315 82.121 122.378 82.1242C122.614 82.1559 122.851 82.1816 123.088 82.2218C123.59 82.3077 124.085 82.4285 124.575 82.5731C126.104 83.0284 127.921 81.6981 128.185 80.0149C128.472 78.1617 127.496 76.6052 125.858 76.1175ZM158.45 79.7473C156.149 77.8065 153.241 76.8781 150.407 77.0997C149.642 77.1595 148.854 77.6533 148.401 78.2853C147.955 78.9076 147.692 79.8766 147.838 80.6839C147.991 81.5218 148.372 82.3675 149.048 82.8894C149.733 83.4185 150.491 83.675 151.322 83.6109C151.458 83.6002 151.594 83.6055 151.731 83.6019C152.149 83.6404 152.562 83.7113 152.969 83.8139C153.452 83.9926 153.918 84.2149 154.361 84.478C154.513 84.5898 154.671 84.6939 154.817 84.8168C155.447 85.3476 156.316 85.6222 157.091 85.5382C157.833 85.4577 158.67 85.0063 159.097 84.3511C159.539 83.6732 159.817 82.8161 159.66 81.9529C159.503 81.0922 159.117 80.3091 158.45 79.7473Z" fill="#71472D"/>
<path fill-rule="evenodd" clip-rule="evenodd" d="M129.176 53.6937C129.285 53.8211 129.392 53.9478 129.494 54.0738C129.598 53.9821 129.698 53.8918 129.795 53.8036C137.197 55.1582 143.129 57.5484 145.437 59.428C149.947 63.1003 152.133 64.5138 152.686 64.774C155.718 71.8048 157.575 79.6487 158.341 84.4142C159.766 93.2665 159.41 103.57 159.054 107.616C159.61 108.034 160.19 108.44 160.808 108.872C162.561 110.099 164.61 111.532 167.244 114.041C171.34 106.188 170.512 101.741 169.559 97.0858C169.09 94.7907 168.155 92.4959 167.031 89.7335C164.745 84.1187 161.673 76.5739 160.122 63.176C158.725 51.1155 148.726 33.014 137.329 29.0876C128.212 25.9465 121.066 27.7787 119.166 29.0876C99.5793 12.6681 69.3076 24.0904 61.1165 29.0876C57.3048 31.4131 54.1869 34.8213 50.9019 38.4118C47.128 42.537 43.1336 46.9032 37.6117 50.1474C27.2839 56.2155 25.1471 71.5642 27.2839 81.9156C29.4207 92.2671 30.4891 100.834 25.1471 107.616C19.8051 114.398 16.956 124.392 23.0103 136.171C27.8537 145.595 26.453 153.662 25.1471 156.517C31.3702 162.255 44.864 166.863 58.0894 170.232C58.7468 170.4 58.911 168.534 59.0752 166.67C59.2383 164.817 59.4011 162.966 60.0481 163.121L60.6204 163.952C60.7219 164.298 60.806 164.731 60.9004 165.218L60.9007 165.218C61.3612 167.593 62.0696 171.245 66.2805 172.182C80.0888 175.258 91.7444 176.863 91.7444 176.863C96.4354 168.87 90.9313 157.781 86.0156 147.878C83.4678 142.744 81.0778 137.929 80.3481 134.03C79.1372 127.556 81.5867 122.917 84.7146 116.993C87.1057 112.465 89.8928 107.186 91.7444 99.7629C93.3662 93.2611 92.9367 87.993 92.5186 82.8662C91.9025 75.3146 91.3117 68.0697 97.3385 57.6405C107.136 52.1488 119.368 51.9943 129.176 53.6937ZM151.802 62.8219C151.465 62.1121 151.112 61.4103 150.742 60.7173C151.109 61.412 151.462 62.1137 151.802 62.8219Z" fill="#605DE4"/>
<path d="M164.929 153.662C165.345 155.744 165.927 160.515 164.929 162.942C162.258 163.418 156.098 164.227 152.821 163.656C155.077 162.288 160.656 158.373 164.929 153.662Z" fill="#605DE4"/>
<path d="M129.795 53.8037C137.197 55.1583 143.129 57.5484 145.437 59.4281C149.947 63.1003 152.133 64.5138 152.686 64.7741C152.403 64.1181 152.109 63.4674 151.802 62.8223C151.462 62.1139 151.109 61.412 150.742 60.717C146.808 53.3518 141.368 47.9883 134.302 50.1475C133.238 50.5169 132.574 51.1576 131.424 52.2695C130.974 52.7046 130.449 53.2122 129.795 53.8037ZM99.5796 54.0739C110.201 38.3847 123.52 47.0674 129.176 53.6937C119.368 51.9943 107.136 52.1489 97.3385 57.6405C98.0431 56.4253 98.7906 55.2357 99.5796 54.0739Z" fill="black" fill-opacity="0.3"/>
<path d="M84.6214 55.1447C92.8837 40.8668 110.382 38.4871 118.098 39.0821C76.4303 34.7987 72.5129 63.3544 72.5129 74.4197C72.5129 83.272 73.5813 88.3406 70.7322 93.3379C60.4043 105.652 64.2032 117.134 66.1025 121.537C64.3218 112.256 67.8831 105.474 75.7181 96.5504C83.553 87.6267 74.2935 72.992 84.6214 55.1447ZM72.5129 152.234C67.3845 147.094 66.1025 142.239 66.1025 140.455C82.6271 149.021 79.3983 162.347 75.7181 167.94C76.7865 164.846 77.6412 157.374 72.5129 152.234ZM47.5835 93.3379C50.7175 86.1989 50.0765 77.7511 49.3642 74.4197C49.3642 85.1281 42.5977 96.5504 35.1189 110.114C29.1358 120.965 37.6118 133.673 42.5977 138.67C43.6661 132.959 39.0363 128.675 38.6802 118.324C38.3241 107.973 43.6661 102.262 47.5835 93.3379ZM165.464 112.613C167.316 106.759 165.998 98.5136 165.108 95.1226C165.108 100.977 164.039 108.032 163.505 110.828L165.464 112.613Z" fill="black" fill-opacity="0.15"/>
</g>
</svg>
