<svg width="200" height="200" viewBox="0 0 200 200" fill="none" xmlns="http://www.w3.org/2000/svg">
<mask id="mask0_422_6853" style="mask-type:luminance" maskUnits="userSpaceOnUse" x="0" y="0" width="200" height="200">
<path d="M200 0H0V200H200V0Z" fill="white"/>
</mask>
<g mask="url(#mask0_422_6853)">
<path d="M116.015 33.3299C116.015 33.3299 162.972 40.6599 159.412 107.412C159.399 107.66 164.841 111.264 165.267 111.649C169.062 115.074 172.246 119.459 173.639 124.588C178.596 142.855 160.871 161.677 146.537 166.672C141.183 168.538 135.524 169.444 129.854 169.608C92.9922 170.679 44.1894 147.307 41.683 101.661C41.5938 100.025 41.5705 98.3859 41.6133 96.7481C41.8352 88.0811 43.9321 79.6402 47.0922 71.8027C47.0908 71.803 67.606 21.0384 116.015 33.3299Z" fill="#F5D7B1"/>
<g style="mix-blend-mode:multiply" opacity="0.1">
<path d="M160.6 108.117C160.092 109.36 159.584 110.948 159.442 111.857C158.837 115.753 160.173 119.777 162.494 122.669C164.699 125.416 167.847 127.197 170.895 127.869C171.924 128.095 173.171 128.212 174.26 128.249C173.115 116.964 163.906 110.193 160.6 108.117ZM94.4088 137.775C103.131 135.903 108.547 126.735 106.505 117.298C104.462 107.86 95.7362 101.727 87.014 103.599C78.2917 105.471 72.8761 114.639 74.9183 124.077C76.9604 133.514 85.6866 139.647 94.4088 137.775Z" fill="#DC2400"/>
</g>
<path opacity="0.1" d="M137.11 111.378C137.11 111.378 144.559 104.307 150.326 110.955L137.11 111.378Z" fill="black"/>
<path d="M67.656 146.609C42.8599 159.007 20.3547 127.918 27.5633 110.442C32.1616 99.2949 45.5689 98.4282 53.338 108.61C57.923 114.62 61.6328 122.301 63.7393 129.65" fill="#F5D7B1"/>
<path opacity="0.1" d="M47.2327 118.866C50.4231 122.105 52.9878 126.908 56.1401 129.587C55.5575 125.104 54.6276 120.317 52.4446 116.276C50.2284 112.173 46.1977 108.793 42.0937 109.071C37.0079 109.417 32.8203 115.326 32.2817 120.684C32.6034 117.478 39.0687 115.308 41.5361 115.612C45.4003 122.878 46.8964 137.198 46.8964 137.198C50.1154 129.091 48.812 122.715 47.2327 118.866Z" fill="black"/>
<path d="M148.001 123.64C149.075 124.257 156.583 114.826 161.582 117.695C163.269 118.664 164.557 120.316 165.524 122.101C167.648 126.028 168.375 130.799 167.52 135.2C166.308 141.423 162.111 146.517 157.173 149.894C143.886 158.979 133.346 157.262 119.165 152.003C108.003 147.864 92.7939 139.345 95.9446 123.974C101.491 96.9167 147.987 123.633 148.001 123.64Z" fill="#873C41"/>
<path d="M109.534 121.91C113.145 124.153 117.542 124.384 121.485 123.49C122.239 123.318 122.845 123.951 123.033 124.679C124.958 132.162 135.875 136.067 141.349 131.27C141.774 130.897 142.528 130.809 142.973 131.231C145.927 134.035 150.661 134.796 154.138 132.899C159.047 130.22 159.023 122.694 157.686 117.452C153.359 118.774 148.817 124.109 148.001 123.639C147.99 123.632 119.447 107.237 104.42 113.151C104.738 116.785 106.406 119.968 109.534 121.91Z" fill="white"/>
<path d="M150.474 151.016C142.667 143.849 133.067 139.847 123.334 137.006C115.008 134.576 105.634 133.002 97.2072 135.413C101.112 143.797 111.16 149.032 119.165 152.001C131.57 156.601 141.189 158.49 152.296 152.812C151.691 152.211 151.101 151.592 150.474 151.016Z" fill="#EE7E8B"/>
<mask id="mask1_422_6853" style="mask-type:alpha" maskUnits="userSpaceOnUse" x="95" y="111" width="73" height="46">
<path d="M148.001 123.64C149.075 124.257 156.583 114.826 161.582 117.695C163.27 118.664 164.557 120.316 165.524 122.101C167.649 126.028 168.375 130.799 167.52 135.2C166.308 141.423 162.111 146.517 157.173 149.894C143.886 158.979 133.346 157.262 119.165 152.003C108.002 147.864 92.7936 139.345 95.9447 123.974C101.491 96.9167 147.987 123.633 148.001 123.64Z" fill="#873C41"/>
</mask>
<g mask="url(#mask1_422_6853)">
<path fill-rule="evenodd" clip-rule="evenodd" d="M105.086 111.207C105.13 111.153 105.185 111.108 105.247 111.076C105.309 111.043 105.377 111.022 105.447 111.016C105.517 111.009 105.587 111.016 105.654 111.037C105.721 111.058 105.784 111.091 105.838 111.136C106.651 111.81 108.207 112.721 109.956 113.66C111.531 114.504 113.222 115.349 114.588 116.032L114.996 116.235C120.496 118.987 128.972 121.903 133.397 123.426L134.162 123.69C139.313 125.466 145.647 127.398 152.491 127.401C153.476 127.343 154.185 127.256 154.944 127.043C155.712 126.826 156.552 126.473 157.788 125.854C157.914 125.795 158.058 125.788 158.19 125.834C158.321 125.88 158.429 125.975 158.492 126.1C158.554 126.224 158.565 126.368 158.523 126.501C158.481 126.634 158.389 126.745 158.266 126.81C157.009 127.439 156.098 127.827 155.234 128.071C154.364 128.317 153.564 128.408 152.538 128.469C152.528 128.469 152.517 128.47 152.507 128.47C145.468 128.47 138.987 126.484 133.814 124.7L133.038 124.433C128.625 122.914 120.086 119.976 114.518 117.192L114.11 116.987C112.745 116.306 111.041 115.454 109.452 114.602C107.714 113.67 106.065 112.711 105.157 111.96C105.103 111.915 105.058 111.86 105.025 111.798C104.992 111.736 104.972 111.668 104.965 111.598C104.959 111.528 104.966 111.458 104.987 111.391C105.007 111.324 105.041 111.261 105.086 111.207Z" fill="#C4C4C4"/>
<path d="M153.806 125.639L150.962 125.481C150.569 125.459 150.233 125.76 150.211 126.153L150.053 128.999C150.032 129.392 150.332 129.728 150.725 129.75L153.57 129.907C153.963 129.929 154.299 129.628 154.32 129.235L154.478 126.389C154.5 125.997 154.199 125.66 153.806 125.639Z" fill="#A09E9E"/>
<path d="M135.685 122.445L132.933 121.707C132.553 121.605 132.162 121.831 132.061 122.211L131.323 124.964C131.221 125.344 131.447 125.735 131.827 125.837L134.579 126.574C134.959 126.676 135.349 126.45 135.451 126.07L136.189 123.318C136.29 122.937 136.065 122.547 135.685 122.445Z" fill="#A09E9E"/>
<path d="M116.996 115.623L114.443 114.358C114.09 114.183 113.663 114.327 113.488 114.68L112.224 117.234C112.049 117.587 112.193 118.014 112.546 118.189L115.099 119.454C115.451 119.628 115.879 119.484 116.053 119.132L117.318 116.578C117.492 116.225 117.348 115.798 116.996 115.623Z" fill="#A09E9E"/>
</g>
<path d="M130.05 97.8023C130.04 103.062 126.727 107.333 119.844 106.46C114.89 105.362 112.27 103.317 112.281 97.8002C112.292 92.02 115.033 88.1854 119.881 87.4109C127.32 86.2231 130.06 92.5419 130.05 97.8023ZM157.198 96.5448C157.191 100.739 155.477 105.243 151.087 104.726C147.403 104.292 146.462 98.9406 146.466 96.3057C146.474 91.6969 148.559 87.3428 151.603 87.3357C154.876 87.3282 157.205 92.3506 157.198 96.5448Z" fill="#2A1200"/>
<path d="M151.146 90.5163C151.237 90.1618 151.727 90.133 151.828 90.4757L152.763 93.642C152.786 93.721 152.837 93.7887 152.907 93.8326C152.976 93.8764 153.06 93.8933 153.141 93.88L154.93 93.6053C155.222 93.5608 155.423 93.8725 155.27 94.1326L153.78 96.6673C153.754 96.7104 153.738 96.7584 153.731 96.8082C153.725 96.858 153.729 96.9087 153.743 96.9569L154.662 100.072C154.768 100.427 154.323 100.706 154.067 100.446L152.767 99.1279C152.621 98.9808 152.377 98.9989 152.241 99.1671L150.243 101.635C150.022 101.909 149.595 101.752 149.62 101.405L149.882 97.7325C149.886 97.6834 149.879 97.634 149.863 97.5877C149.846 97.5414 149.82 97.4992 149.785 97.4639L147.809 95.4607C147.607 95.2551 147.736 94.8925 148.028 94.8476L149.869 94.5654C150.015 94.543 150.136 94.4325 150.173 94.2872L151.146 90.5163ZM121.174 90.0585C121.295 89.7635 121.712 89.7632 121.833 90.0578L123.52 94.1614C123.549 94.234 123.602 94.2947 123.67 94.3341C123.738 94.3735 123.817 94.3895 123.894 94.3795L127.334 93.9388C127.66 93.8971 127.864 94.2815 127.647 94.5276L125.081 97.4371C125.037 97.4869 125.007 97.5481 124.996 97.6137C124.985 97.6792 124.993 97.7465 125.018 97.808L126.607 101.674C126.741 102 126.371 102.302 126.079 102.105L123.093 100.092C123.029 100.049 122.953 100.028 122.876 100.032C122.799 100.036 122.725 100.065 122.666 100.114L118.56 103.555C118.31 103.764 117.934 103.557 117.978 103.234L118.576 98.8383C118.585 98.7724 118.576 98.7053 118.548 98.6446C118.521 98.5839 118.478 98.532 118.422 98.4948L115.206 96.3264C114.934 96.1429 115.034 95.7193 115.36 95.6776L118.865 95.2287C118.928 95.2207 118.987 95.1962 119.037 95.1578C119.087 95.1194 119.126 95.0684 119.15 95.01L121.174 90.0585Z" fill="white"/>
<path d="M125.858 76.1174C121.125 74.7105 115.714 75.852 111.767 79.0696C110.495 80.107 109.912 82.1619 110.912 83.646C111.836 85.0193 113.756 85.6496 115.118 84.5373C115.524 84.2041 115.948 83.8946 116.39 83.6104C116.527 83.5224 116.895 83.382 117.022 83.2427C117.088 83.2107 117.152 83.1786 117.219 83.148C117.628 82.9579 118.046 82.7888 118.473 82.6414C118.715 82.558 118.96 82.4815 119.208 82.412C119.286 82.3906 119.364 82.3703 119.443 82.3503C119.653 82.3407 119.903 82.2598 120.097 82.2328C120.791 82.1364 121.492 82.0974 122.192 82.1163C122.254 82.118 122.315 82.1209 122.378 82.1241C122.614 82.1558 122.851 82.1815 123.088 82.2217C123.59 82.3076 124.085 82.4283 124.575 82.573C126.104 83.0283 127.921 81.698 128.185 80.0147C128.472 78.1615 127.496 76.6051 125.858 76.1174ZM158.45 79.7472C156.149 77.8064 153.241 76.878 150.407 77.0996C149.642 77.1594 148.854 77.6532 148.401 78.2852C147.955 78.9075 147.692 79.8765 147.838 80.6838C147.991 81.5217 148.372 82.3674 149.048 82.8893C149.733 83.4184 150.491 83.6749 151.322 83.6107C151.458 83.6 151.594 83.6054 151.731 83.6018C152.149 83.6403 152.562 83.7111 152.969 83.8138C153.452 83.9925 153.918 84.2147 154.361 84.4779C154.513 84.5897 154.671 84.6937 154.817 84.8166C155.447 85.3475 156.316 85.6221 157.091 85.538C157.833 85.4575 158.67 85.0062 159.097 84.351C159.539 83.6731 159.817 82.8159 159.66 81.9527C159.503 81.092 159.117 80.309 158.45 79.7472Z" fill="#71472D"/>
<path d="M49.8817 -6.20148C49.8806 -6.27714 49.88 -6.35282 49.8799 -6.4285C49.8799 -13.8208 55.859 -19.814 63.2349 -19.814C68.3169 -19.814 72.7362 -16.9687 74.993 -12.7811C77.4425 -15.7676 81.157 -17.6723 85.3152 -17.6723C92.6911 -17.6723 98.6702 -11.6792 98.6702 -4.28682C98.6702 -3.59292 98.6175 -2.91115 98.516 -2.2458C105.211 -1.52227 110.423 4.15959 110.423 11.0619C110.423 17.8988 105.308 23.5385 98.7047 24.3477C97.5669 40.1476 85.432 52.5825 70.6293 52.5825C61.518 52.5825 53.417 47.8712 48.2695 40.5634C47.3539 40.7622 46.4033 40.8668 45.4282 40.8668C38.0527 40.8668 32.0732 34.8741 32.0732 27.4814C32.0732 23.208 34.0712 19.4022 37.1823 16.9515C34.0712 14.5007 32.0732 10.6949 32.0732 6.42155C32.0732 -0.970793 38.0527 -6.96391 45.4282 -6.96391C46.9899 -6.96391 48.4889 -6.69513 49.8817 -6.20148Z" fill="#605DE4"/>
<path d="M49.8817 -6.20148C49.8806 -6.27714 49.88 -6.35282 49.8799 -6.4285C49.8799 -13.8208 55.859 -19.814 63.2349 -19.814C68.3169 -19.814 72.7362 -16.9687 74.993 -12.7811C77.4425 -15.7676 81.157 -17.6723 85.3152 -17.6723C92.6911 -17.6723 98.6702 -11.6792 98.6702 -4.28682C98.6702 -3.59292 98.6175 -2.91115 98.516 -2.2458C105.211 -1.52227 110.423 4.15959 110.423 11.0619C110.423 17.8988 105.308 23.5385 98.7047 24.3477C97.5669 40.1476 85.432 52.5825 70.6293 52.5825C61.518 52.5825 53.417 47.8712 48.2695 40.5634C47.3539 40.7622 46.4033 40.8668 45.4282 40.8668C38.0527 40.8668 32.0732 34.8741 32.0732 27.4814C32.0732 23.208 34.0712 19.4022 37.1823 16.9515C34.0712 14.5007 32.0732 10.6949 32.0732 6.42155C32.0732 -0.970793 38.0527 -6.96391 45.4282 -6.96391C46.9899 -6.96391 48.4889 -6.69513 49.8817 -6.20148Z" fill="white" fill-opacity="0.025"/>
<mask id="mask2_422_6853" style="mask-type:alpha" maskUnits="userSpaceOnUse" x="32" y="-20" width="79" height="73">
<path d="M49.8817 -6.20148C49.8806 -6.27714 49.88 -6.35282 49.8799 -6.4285C49.8799 -13.8208 55.859 -19.814 63.2349 -19.814C68.3169 -19.814 72.7362 -16.9687 74.993 -12.7811C77.4425 -15.7676 81.157 -17.6723 85.3152 -17.6723C92.6911 -17.6723 98.6702 -11.6792 98.6702 -4.28682C98.6702 -3.59292 98.6175 -2.91115 98.516 -2.2458C105.211 -1.52227 110.423 4.15959 110.423 11.0619C110.423 17.8988 105.308 23.5385 98.7047 24.3477C97.5669 40.1476 85.432 52.5825 70.6293 52.5825C61.518 52.5825 53.417 47.8712 48.2695 40.5634C47.3539 40.7622 46.4033 40.8668 45.4282 40.8668C38.0527 40.8668 32.0732 34.8741 32.0732 27.4814C32.0732 23.208 34.0712 19.4022 37.1823 16.9515C34.0712 14.5007 32.0732 10.6949 32.0732 6.42155C32.0732 -0.970793 38.0527 -6.96391 45.4282 -6.96391C46.9899 -6.96391 48.4889 -6.69513 49.8817 -6.20148Z" fill="#451E00" fill-opacity="0.3"/>
</mask>
<g mask="url(#mask2_422_6853)">
<path d="M52.0167 13.5604C41.0477 13.4176 35.1003 3.7444 33.4977 -1.07437L29.5803 1.95967L22.8137 14.9882L24.4163 41.5807L42.4011 48.1842C60.2077 43.1273 97.851 31.8003 105.971 26.9459C114.091 22.0914 111.372 6.4811 109.71 1.95967C108.286 12.8465 92.2597 27.1243 84.4248 26.9459C76.5899 26.7674 52.0167 25.875 50.0579 21.9486C48.4909 18.8075 50.7107 15.0478 52.0167 13.5604ZM57.7148 -1.07437C55.8629 -4.21549 51.8386 -5.71467 50.0579 -6.07161C48.659 -11.0432 52.5498 -17.2383 55.3429 -20.5415C55.6102 -20.9347 55.9288 -21.2903 56.2903 -21.5988C55.9638 -21.2561 55.6479 -20.9035 55.3429 -20.5415C52.1548 -15.8762 55.4701 -5.84852 57.7148 -1.07437ZM76.0557 -8.03481C75.9132 -11.7471 75.0467 -13.6271 74.6311 -14.1029C78.4774 -21.9557 87.9861 -19.5167 92.2597 -17.3154C85.5644 -17.4582 78.6672 -11.1877 76.0557 -8.03481Z" fill="black" fill-opacity="0.3"/>
<path d="M99.9165 -6.07166C98.492 -1.21719 95.1682 3.44702 93.6842 5.17214C100.949 4.60102 103.715 -0.420132 104.19 -2.85914L99.9165 -6.07166Z" fill="black" fill-opacity="0.3"/>
</g>
<g style="mix-blend-mode:multiply" opacity="0.3">
<path d="M119.118 50.1382C121.326 47.1395 122.062 45.6756 124.454 45.6756C126.845 45.6756 129.384 49.5671 132.181 50.1382C135.676 50.8521 138.619 49.067 141.379 49.4243C144.139 49.7812 143.035 51.5663 144.875 55.6716C146.714 59.7771 149.842 61.0268 150.762 62.2761C151.682 63.5258 150.762 66.0248 151.498 67.8099C152.234 69.5949 154.441 70.3088 154.993 71.9154C155.545 73.5217 154.441 74.0575 155.545 76.378C156.428 78.2345 158.121 79.8885 158.857 80.4836L154.441 64.0612C148.113 46.6394 131.813 40.8562 124.454 40.1419C86.187 29.4321 53.8074 69.8327 42.4011 91.3722L50.5922 107.259C52.7386 106.604 55.7209 105.295 58.2231 102.439C61.3506 98.8691 60.2466 90.301 61.3506 86.7308C62.4543 83.161 64.2941 81.3759 70.5492 78.6985C76.8043 76.021 76.4364 71.0227 79.564 67.096C82.6916 63.1688 89.4983 65.3109 92.4421 62.8119C95.3856 60.3129 92.81 56.7428 96.8575 53.5295C100.905 50.3167 106.976 51.9233 110.288 53.5295C113.599 55.1361 116.359 53.8868 119.118 50.1382Z" fill="#351700"/>
</g>
<path d="M64.9789 24.5958C30.8909 36.1048 15.1569 74.5982 26.8947 113.327C28.2003 109.162 32.4504 101.084 41.8523 102.083C43.3954 102.44 47.5148 104.225 51.646 108.508C64.9789 38.9036 120.583 39.8131 136.776 46.3994C152.574 52.8245 156.364 77.8107 157.269 81.333C157.838 81.9116 158.738 81.4412 158.717 80.5945C157.229 23.3839 102.226 12.0209 64.9789 24.5958Z" fill="#605DE4"/>
<path d="M90.1229 22.6626C97.7203 25.8751 114.269 33.8707 119.682 40.1529C116.952 34.3229 107.217 22.6626 90.1229 22.6626ZM81.5757 26.2321C83.1189 31.7051 86.989 43.5082 90.1229 46.9349C90.3605 43.3058 88.9833 34.0849 81.5757 26.2321ZM69.6453 27.6598C69.1111 33.6091 69.396 47.4703 74.8092 55.3231C69.7047 51.8725 61.5254 41.5093 69.6453 27.6598ZM56.2903 77.0968C48.3129 57.5362 55.6966 38.9632 60.3858 32.1217C41.297 55.9656 47.3275 77.8703 52.7289 85.842C49.8799 81.2731 49.7613 72.2781 50.0579 68.3517C50.2004 72.4922 54.2721 75.9071 56.2903 77.0968Z" fill="black" fill-opacity="0.1"/>
<path d="M48.6335 40.153C42.5197 50.4448 32.7499 75.4549 42.5792 93.1595C36.2283 86.0205 28.5475 65.4248 48.6335 40.153ZM110.779 24.8043C117.961 26.946 133.963 33.8351 140.516 44.2579C137.489 38.4871 127.303 26.5177 110.779 24.8043Z" fill="black" fill-opacity="0.1"/>
<path fill-rule="evenodd" clip-rule="evenodd" d="M62.402 103.542C70.4669 106.824 78.5871 111.55 83.6083 114.905L82.6204 116.39C77.6697 113.082 69.6571 108.421 61.7317 105.195C57.7683 103.582 53.859 102.341 50.3846 101.799C46.8888 101.253 43.9578 101.434 41.8545 102.52L41.0389 100.934C43.6366 99.5923 47.0181 99.467 50.6585 100.035C54.3199 100.607 58.3702 101.901 62.402 103.542ZM82.7183 147.201C83.786 146.913 84.8566 146.637 85.9299 146.371L86.353 148.104C85.2953 148.363 84.2892 148.631 83.3187 148.889C80.7036 149.585 78.3482 150.211 75.9468 150.416C72.5713 150.703 69.0805 150.173 64.4059 148.05L65.141 146.425C69.5834 148.442 72.7701 148.894 75.7961 148.637C78.0312 148.447 80.168 147.879 82.7183 147.201Z" fill="white"/>
<path d="M143.479 106.01C118.407 105.867 92.7893 111.543 83.1143 114.398C88.1001 122.965 89.8808 135.637 84.8949 148.487C101.241 157.767 139.677 172.259 162.656 155.983C166.776 151.765 171.491 144.976 173.75 135.637C177.169 121.502 165.559 111.067 159.327 107.616C155.908 107.045 149.177 106.043 143.479 106.01Z" fill="#F7F7F7"/>
<path d="M81.1555 115.826C82.0102 114.398 85.7853 113.268 87.9221 113.149C88.9905 114.22 91.1985 119.253 91.4834 130.818C91.8395 145.274 88.9905 149.379 88.6343 150.271C88.3697 150.934 83.6485 148.487 82.5801 147.951C81.5117 147.416 81.5117 146.345 82.5801 144.025C84.8789 139.033 83.6485 124.571 82.5801 121.359C81.7253 118.789 81.5117 116.778 81.1555 115.826Z" fill="#EDEDED"/>
<path d="M151.492 117.789C138.956 116.076 113.742 124.214 102.702 128.498C143.443 118.218 167.399 124.214 174.284 128.498C171.91 125.642 164.028 119.503 151.492 117.789ZM116.947 138.849C126.206 143.251 149.498 149.986 168.586 141.705C159.683 148.844 136.89 158.267 116.947 138.849Z" fill="#EDEDED"/>
</g>
</svg>
