<svg width="200" height="200" viewBox="0 0 200 200" fill="none" xmlns="http://www.w3.org/2000/svg">
<mask id="mask0_422_6966" style="mask-type:luminance" maskUnits="userSpaceOnUse" x="0" y="0" width="200" height="200">
<path d="M200 0H0V200H200V0Z" fill="white"/>
</mask>
<g mask="url(#mask0_422_6966)">
<path d="M116.015 33.33C116.015 33.33 162.972 40.66 159.412 107.412C159.399 107.66 164.841 111.264 165.267 111.65C169.062 115.074 172.246 119.459 173.639 124.588C178.596 142.855 160.871 161.677 146.537 166.672C141.183 168.538 135.524 169.444 129.854 169.609C92.9922 170.68 44.1894 147.307 41.683 101.661C41.5938 100.025 41.5705 98.386 41.6133 96.7482C41.8352 88.0813 43.9321 79.6404 47.0922 71.8028C47.0908 71.8032 67.606 21.0385 116.015 33.33Z" fill="#8C5A2B"/>
<g style="mix-blend-mode:multiply" opacity="0.1">
<path d="M160.6 108.117C160.092 109.36 159.584 110.948 159.442 111.857C158.837 115.753 160.173 119.777 162.494 122.67C164.699 125.416 167.847 127.197 170.895 127.869C171.924 128.096 173.171 128.212 174.26 128.249C173.115 116.964 163.906 110.193 160.6 108.117ZM94.4088 137.776C103.131 135.903 108.547 126.735 106.505 117.298C104.462 107.86 95.7362 101.727 87.014 103.599C78.2917 105.471 72.8761 114.639 74.9183 124.077C76.9604 133.515 85.6866 139.647 94.4088 137.776Z" fill="#DC2400"/>
</g>
<path opacity="0.1" d="M137.111 111.378C137.111 111.378 144.559 104.307 150.326 110.955L137.111 111.378Z" fill="black"/>
<path d="M67.656 146.609C42.8599 159.007 20.3547 127.918 27.5633 110.442C32.1616 99.295 45.5689 98.4282 53.338 108.61C57.923 114.62 61.6328 122.302 63.7393 129.65" fill="#8C5A2B"/>
<path opacity="0.1" d="M47.2326 118.866C50.4231 122.105 52.9878 126.908 56.14 129.587C55.5574 125.104 54.6275 120.317 52.4445 116.276C50.2283 112.173 46.1976 108.793 42.0936 109.071C37.0079 109.417 32.8203 115.326 32.2817 120.684C32.6033 117.478 39.0686 115.308 41.5361 115.612C45.4002 122.878 46.8963 137.198 46.8963 137.198C50.1154 129.091 48.8119 122.715 47.2326 118.866Z" fill="black"/>
<path d="M133.177 120.381C145.892 121.194 153.753 120.381 156.289 120.381C166.968 118.781 171.533 137.636 158.127 147.529C154.125 150.483 152.151 150.023 143.603 150.023C135.048 150.023 125.799 153.211 120.633 151.755C105.988 147.628 103.416 137.023 104.73 131.186C106.508 123.29 110.127 118.907 133.177 120.381Z" fill="white"/>
<mask id="mask1_422_6966" style="mask-type:alpha" maskUnits="userSpaceOnUse" x="104" y="120" width="63" height="33">
<path d="M133.177 120.381C145.892 121.194 153.753 120.381 156.289 120.381C166.968 118.781 171.533 137.636 158.127 147.529C154.125 150.483 152.151 150.023 143.603 150.023C135.048 150.023 125.799 153.211 120.633 151.755C105.988 147.628 103.416 137.023 104.73 131.186C106.508 123.29 110.127 118.907 133.177 120.381Z" fill="white"/>
</mask>
<g mask="url(#mask1_422_6966)">
<path fill-rule="evenodd" clip-rule="evenodd" d="M109.708 153.23L115.923 114.979L118.032 115.321L111.817 153.573L109.708 153.23ZM137.274 158.309L138.796 119.27L140.932 119.353L139.409 158.392L137.274 158.309ZM161.067 147.696L156.214 116.936L158.325 116.603L163.178 147.362L161.067 147.696Z" fill="#D1D3D4"/>
</g>
<path d="M151.041 94.366C152.429 95.0037 154.342 95.7607 156.225 96.2021C156.791 97.3143 157.114 98.6392 157.111 99.8604C157.103 102.697 155.808 105.743 152.499 105.395C149.721 105.103 149.014 101.484 149.019 99.7026C149.024 97.5256 149.795 95.4319 151.041 94.366ZM113.403 97.1308C113.262 97.8365 113.191 98.5546 113.191 99.2744C113.179 103.711 115.394 106.039 118.722 106.921C123.346 107.622 125.575 104.187 125.586 99.9559C125.592 97.4971 124.563 95.0706 122.958 93.4711C120.963 94.998 117.817 96.5719 113.403 97.1308Z" fill="#2A1200"/>
<path d="M123.605 77.6094C118.721 78.3279 114.294 81.6436 112.069 86.2249C111.352 87.7019 111.689 89.8113 113.221 90.7358C114.638 91.5918 116.645 91.3542 117.412 89.7714C117.639 89.2982 117.893 88.8386 118.174 88.3948C118.261 88.2573 118.536 87.9755 118.593 87.7949C118.639 87.7383 118.683 87.682 118.731 87.6264C119.022 87.2817 119.33 86.952 119.655 86.6385C119.84 86.4606 120.03 86.2878 120.225 86.1205C120.287 86.0682 120.349 86.0172 120.412 85.9656C120.598 85.8687 120.791 85.6898 120.956 85.5833C121.545 85.2033 122.164 84.8726 122.807 84.5947C122.864 84.5701 122.921 84.547 122.979 84.5235C123.207 84.4526 123.432 84.376 123.664 84.3129C124.156 84.1807 124.656 84.0778 125.16 84.0048C126.739 83.7729 127.827 81.801 127.357 80.1633C126.837 78.3618 125.296 77.3611 123.605 77.6094ZM159.347 85.698C158.23 82.9022 156.102 80.7137 153.497 79.5745C152.793 79.2674 151.866 79.3315 151.169 79.676C150.483 80.0155 149.794 80.7458 149.544 81.5271C149.284 82.3382 149.223 83.2641 149.573 84.0425C149.928 84.832 150.477 85.4152 151.24 85.75C151.365 85.8045 151.483 85.8737 151.605 85.9349C151.955 86.1654 152.287 86.4228 152.597 86.7048C152.939 87.0899 153.246 87.5054 153.513 87.9463C153.594 88.1166 153.685 88.2826 153.756 88.4597C154.062 89.2249 154.7 89.8765 155.423 90.1672C156.115 90.4454 157.066 90.4411 157.751 90.0646C158.46 89.6745 159.108 89.0493 159.376 88.2135C159.643 87.3806 159.671 86.5078 159.347 85.698Z" fill="#71472D"/>
<path d="M132.503 53.36C120.928 69.4225 94.7527 102.44 58.7832 114.219C56.3498 110.055 52.0167 105.688 44.1818 105.831C34.3881 106.009 30.8268 113.148 30.8268 113.148C30.8268 113.148 19.4305 132.245 45.7844 144.381C53.0851 145.809 55.4 145.809 61.2762 143.31C65.2531 146.404 77.872 156.946 82.288 158.659C81.1601 164.667 79.169 179.647 81.8756 186.501C76.7117 186.977 64.1252 189.606 54.1535 184.181C53.1495 178.069 52.2663 170.065 53.8383 167.013C51.9618 170.087 48.5772 177.102 48.5772 181.147C42.879 179.183 30.2007 173.722 25.0724 167.583C17.1192 130.103 14.2666 39.2606 94.7527 31.5863C101.816 30.7535 119.824 31.4792 131.791 39.6176C146.748 49.7905 154.227 63.3545 157.076 76.9184C150.962 74.0628 137.489 65.3534 132.503 53.36ZM161.884 181.147C159.462 177.72 160.875 162.169 161.884 156.874C151.912 165.262 146.036 169.367 125.558 169.903C129.12 175.257 143.009 177.22 144.611 177.934L147.46 175.971V178.826C151.307 180.111 158.679 180.908 161.884 181.147Z" fill="#E9B729"/>
<mask id="mask2_422_6966" style="mask-type:alpha" maskUnits="userSpaceOnUse" x="94" y="31" width="64" height="46">
<path d="M130.901 39.2606C118.934 31.1223 101.816 30.7535 94.7527 31.5863C96.7032 42.1758 102.72 64.7109 119.326 70.1364C124.195 63.8121 130.007 57.9257 132.503 53.36C137.489 65.3534 150.963 74.0628 157.076 76.9184C154.227 63.3545 145.858 49.4336 130.901 39.2606Z" fill="#E2BA87"/>
</mask>
<g mask="url(#mask2_422_6966)">
<path d="M128.205 51.5089C128.205 51.5089 125.258 48.0076 118.828 48.5926C118.828 48.5926 123.383 46.1137 126.329 46.4053C126.329 46.4053 118.292 40.425 106.505 44.2179C106.505 44.2179 114.809 38.3836 121.374 39.1129C121.374 39.1129 114.409 36.0506 109.988 36.7799C109.988 36.7799 113.471 32.4037 118.025 32.5494C118.025 32.5494 114.408 26.1318 108.781 24.0905C108.781 24.0905 120.034 27.3001 122.979 29.6331C129.543 32.4037 135.571 40.5724 135.571 40.5724C133.562 39.4059 130.346 39.6976 130.346 39.6976C135.571 42.9072 139.589 48.8857 139.589 48.8857C137.045 47.1359 133.963 47.7192 133.963 47.7192C138.92 52.6786 140.527 59.0961 140.527 59.0961C139.857 57.0548 135.035 54.5743 135.035 54.5743C136.91 57.9296 137.311 63.3249 137.311 63.3249L133.292 58.0738C133.292 58.0738 125.122 64.929 122.978 65.8039C122.978 65.8039 129.139 59.3863 129.542 56.4697C129.542 56.4697 120.298 58.9487 112.931 59.971C112.934 59.9678 123.249 52.0921 128.205 51.5089Z" fill="black" fill-opacity="0.15"/>
</g>
<path d="M107.573 69.0657C102.588 75.3718 86.3479 90.6966 61.2761 101.548C69.2297 96.5505 89.6243 83.0579 107.573 69.0657ZM41.3327 101.548C55.8629 70.7076 85.3746 53.2412 98.314 48.3628C64.9799 54.0739 42.7572 87.0318 35.8126 102.797C37.0947 102.226 40.0267 101.726 41.3327 101.548ZM33.8539 138.849C34.5661 139.741 36.6317 141.133 37.7713 141.704C37.3119 149.53 36.6157 164.718 36.9729 171.455C37.0673 172.406 37.1566 173.266 37.2371 174.008C37.1171 173.427 37.0309 172.554 36.9729 171.455C36.3026 164.695 35.3845 153.316 35.6345 147.058C34.3286 151.817 32.1088 153.412 33.6758 173.115C32.0137 160.384 29.4378 146.559 33.8539 138.849ZM152.98 163.835C153.978 163.406 155.651 162.229 156.364 161.693C155.082 163.835 155.592 174.603 156.008 179.719C155.153 179.005 154.583 176.328 154.405 175.079C153.835 176.935 152.743 177.042 152.98 179.719C151.413 176.149 152.802 169.546 152.98 163.835ZM72.8505 160.979C71.141 176.542 71.9601 180.79 73.3847 187.393H66.262C63.6978 174.829 70.2389 168.832 72.8505 160.979Z" fill="black" fill-opacity="0.15"/>
<path d="M58.5411 52.1114C94.8197 48.1136 130.833 65.6157 140.267 73.7066C143.677 69.7088 149.302 64.9018 153.223 64.426C154.178 66.5677 155.724 71.9219 156.122 73.1712C150.393 73.1712 144.188 80.2505 141.119 85.1289C117.303 64.426 84.1058 64.426 50.35 64.426C53.4188 57.4656 56.0407 54.4911 58.5411 52.1114Z" fill="#FFC00C"/>
<mask id="mask3_422_6966" style="mask-type:alpha" maskUnits="userSpaceOnUse" x="50" y="51" width="107" height="35">
<path d="M58.7192 52.2899C94.9978 48.2921 130.833 65.6158 140.267 73.7066C143.677 69.7089 149.302 64.9019 153.223 64.4261C154.178 66.5677 155.724 71.9219 156.122 73.1712C150.393 73.1712 144.188 80.2505 141.119 85.1289C114.098 62.8198 83.6485 65.4969 50.35 64.4261C53.4188 57.4656 56.2188 54.6697 58.7192 52.2899Z" fill="#FFC00C"/>
</mask>
<g mask="url(#mask3_422_6966)">
<path d="M128.333 80.8456L136.304 67.7739L134.143 64.4043L124.753 77.8115L128.333 80.8456ZM144.188 82.9872L154.246 63.1768L159.19 64.4043L146.916 83.8796L144.188 82.9872ZM122.387 75.5903L131.572 63.1768L129.816 62.1127L120.901 74.1718L122.387 75.5903ZM104.124 71.7435L115.035 58.7149L109.921 56.2163L97.1346 70.8511L104.124 71.7435Z" fill="#FFD45B"/>
</g>
<path d="M140.507 82.8087C142.24 82.8087 143.646 80.6512 143.646 77.9899C143.646 75.3286 142.24 73.1711 140.507 73.1711C138.774 73.1711 137.368 75.3286 137.368 77.9899C137.368 80.6512 138.774 82.8087 140.507 82.8087Z" fill="#FF3C15"/>
<mask id="mask4_422_6966" style="mask-type:alpha" maskUnits="userSpaceOnUse" x="137" y="73" width="7" height="10">
<path d="M140.507 82.8087C142.24 82.8087 143.646 80.6512 143.646 77.9899C143.646 75.3286 142.24 73.1711 140.507 73.1711C138.774 73.1711 137.368 75.3286 137.368 77.9899C137.368 80.6512 138.774 82.8087 140.507 82.8087Z" fill="#FF3C15"/>
</mask>
<g mask="url(#mask4_422_6966)">
<path d="M144.064 76.0186C142.557 80.0488 139.391 81.6404 137.996 81.9324C138.415 82.5896 139.754 83.7725 141.762 83.2467C143.771 82.7213 144.133 78.2091 144.064 76.0186Z" fill="#CB1414"/>
<path d="M139.197 77.2799C139.744 77.4735 140.428 76.8872 140.723 75.9703C141.019 75.0535 140.815 74.1533 140.268 73.9598C139.721 73.7662 139.037 74.3525 138.741 75.2693C138.445 76.1862 138.649 77.0863 139.197 77.2799Z" fill="#FF7256"/>
</g>
</g>
</svg>
