<svg width="200" height="200" viewBox="0 0 200 200" fill="none" xmlns="http://www.w3.org/2000/svg">
<mask id="mask0_422_6826" style="mask-type:luminance" maskUnits="userSpaceOnUse" x="0" y="0" width="200" height="200">
<path d="M200 0H0V200H200V0Z" fill="white"/>
</mask>
<g mask="url(#mask0_422_6826)">
<path d="M116.015 33.3299C116.015 33.3299 162.972 40.6599 159.412 107.412C159.399 107.66 164.841 111.264 165.267 111.649C169.062 115.074 172.246 119.459 173.639 124.588C178.596 142.855 160.871 161.677 146.537 166.672C141.183 168.538 135.524 169.444 129.854 169.608C92.9922 170.679 44.1894 147.307 41.683 101.661C41.5938 100.025 41.5705 98.3859 41.6133 96.7481C41.8352 88.0811 43.9321 79.6402 47.0922 71.8027C47.0908 71.803 67.606 21.0384 116.015 33.3299Z" fill="#E2BA87"/>
<g style="mix-blend-mode:multiply" opacity="0.1">
<path d="M160.6 108.117C160.092 109.36 159.584 110.948 159.442 111.857C158.837 115.753 160.173 119.777 162.494 122.669C164.699 125.416 167.847 127.197 170.895 127.869C171.924 128.095 173.171 128.212 174.26 128.249C173.115 116.964 163.906 110.193 160.6 108.117ZM94.4088 137.775C103.131 135.903 108.547 126.735 106.505 117.298C104.462 107.86 95.7362 101.727 87.014 103.599C78.2917 105.471 72.8761 114.639 74.9183 124.077C76.9604 133.514 85.6866 139.647 94.4088 137.775Z" fill="#DC2400"/>
</g>
<path opacity="0.1" d="M137.111 111.378C137.111 111.378 144.559 104.307 150.326 110.955L137.111 111.378Z" fill="black"/>
<path d="M67.656 146.609C42.8599 159.007 20.3547 127.918 27.5633 110.442C32.1616 99.2949 45.5689 98.4282 53.338 108.61C57.923 114.62 61.6328 122.301 63.7393 129.65" fill="#E2BA87"/>
<path opacity="0.1" d="M47.2326 118.866C50.4231 122.105 52.9878 126.908 56.14 129.587C55.5574 125.104 54.6275 120.317 52.4445 116.276C50.2283 112.173 46.1976 108.793 42.0936 109.071C37.0079 109.417 32.8203 115.326 32.2817 120.684C32.6033 117.478 39.0686 115.308 41.5361 115.612C45.4002 122.878 46.8963 137.198 46.8963 137.198C50.1154 129.091 48.8119 122.715 47.2326 118.866Z" fill="black"/>
<path d="M145.137 128.42C148.468 128.512 151.662 127.559 154.413 124.699C155.853 123.204 157.312 122.381 159.378 123.66C164.323 126.723 165.487 134.375 164.158 139.505C162.698 145.135 158.302 149.674 153.236 152.634C139.604 160.6 129.147 158.807 115.197 153.715C104.217 149.708 89.3715 141.631 93.1344 127.729C97.7944 110.517 117.877 118.781 129.209 123.425C134.021 125.398 139.757 128.27 145.137 128.42Z" fill="white"/>
<mask id="mask1_422_6826" style="mask-type:alpha" maskUnits="userSpaceOnUse" x="92" y="117" width="73" height="42">
<path d="M145.137 128.42C148.468 128.512 151.662 127.559 154.413 124.699C155.853 123.204 157.312 122.381 159.378 123.66C164.323 126.723 165.487 134.375 164.158 139.505C162.698 145.135 158.302 149.674 153.236 152.634C139.604 160.6 129.147 158.807 115.197 153.715C104.217 149.708 89.3715 141.631 93.1344 127.729C97.7944 110.517 117.877 118.781 129.209 123.425C134.021 125.398 139.757 128.27 145.137 128.42Z" fill="white"/>
</mask>
<g mask="url(#mask1_422_6826)">
<path fill-rule="evenodd" clip-rule="evenodd" d="M99.6555 147.538L113.927 111.51L115.913 112.298L101.642 148.326L99.6555 147.538ZM128.98 159.179L138.837 121.375L140.904 121.914L131.047 159.719L128.98 159.179ZM158.318 150.051L152.879 122.335L154.976 121.924L160.414 149.64L158.318 150.051Z" fill="#D1D3D4"/>
</g>
<path d="M151.041 94.366C152.429 95.0037 154.342 95.7607 156.225 96.2021C156.791 97.3143 157.114 98.6392 157.111 99.8604C157.103 102.697 155.808 105.743 152.499 105.395C149.721 105.103 149.014 101.484 149.019 99.7026C149.024 97.5256 149.795 95.4319 151.041 94.366ZM113.403 97.1308C113.262 97.8365 113.191 98.5546 113.191 99.2744C113.179 103.711 115.394 106.039 118.722 106.921C123.346 107.622 125.575 104.187 125.586 99.9559C125.592 97.4971 124.563 95.0706 122.958 93.4711C120.963 94.998 117.817 96.5719 113.403 97.1308Z" fill="#2A1200"/>
<path d="M123.605 77.6094C118.721 78.3279 114.294 81.6436 112.069 86.2249C111.352 87.7019 111.689 89.8113 113.221 90.7358C114.638 91.5918 116.645 91.3542 117.412 89.7714C117.639 89.2982 117.893 88.8386 118.174 88.3948C118.261 88.2573 118.536 87.9755 118.593 87.7949C118.639 87.7383 118.683 87.682 118.731 87.6264C119.022 87.2817 119.33 86.952 119.655 86.6385C119.84 86.4606 120.03 86.2878 120.225 86.1205C120.287 86.0682 120.349 86.0172 120.412 85.9656C120.598 85.8687 120.791 85.6898 120.956 85.5833C121.545 85.2033 122.164 84.8726 122.807 84.5947C122.864 84.5701 122.921 84.547 122.979 84.5235C123.207 84.4526 123.432 84.376 123.664 84.3129C124.156 84.1807 124.656 84.0778 125.16 84.0048C126.739 83.7729 127.827 81.801 127.357 80.1633C126.837 78.3618 125.296 77.3611 123.605 77.6094ZM159.347 85.698C158.23 82.9022 156.102 80.7137 153.497 79.5745C152.793 79.2674 151.866 79.3315 151.169 79.676C150.483 80.0155 149.794 80.7458 149.544 81.5271C149.284 82.3382 149.223 83.2641 149.573 84.0425C149.928 84.832 150.477 85.4152 151.24 85.75C151.365 85.8045 151.483 85.8737 151.605 85.9349C151.955 86.1654 152.287 86.4228 152.597 86.7048C152.939 87.0899 153.246 87.5054 153.513 87.9463C153.594 88.1166 153.685 88.2826 153.756 88.4597C154.062 89.2249 154.7 89.8765 155.423 90.1672C156.115 90.4454 157.066 90.4411 157.751 90.0646C158.46 89.6745 159.108 89.0493 159.376 88.2135C159.643 87.3806 159.671 86.5078 159.347 85.698Z" fill="#71472D"/>
<path d="M142.785 68.7439C145.738 71.7116 149.775 73.5398 154.226 73.5398C154.729 73.5398 155.227 73.5166 155.719 73.4706C157.514 79.619 158.734 86.6933 159.124 94.8302C164.635 92.343 168.472 86.79 168.472 80.3389C168.472 76.3019 166.97 72.6168 164.495 69.8148C168.223 66.7215 170.609 61.9805 170.609 56.6656C170.609 48.4041 164.845 41.5289 157.233 40.0747C157.314 39.3511 157.355 38.6235 157.355 37.8952C157.355 27.6334 149.279 19.3148 139.316 19.3148C136.691 19.3121 134.1 19.8988 131.731 21.0317C129.046 14.2422 122.574 9.45557 115.017 9.45557C108.757 9.45557 103.241 12.7405 100.006 17.7281C96.9585 15.3909 93.1689 14.0059 89.062 14.0059C81.5999 14.0059 75.1856 18.5784 72.3672 25.1248C70.0428 24.0427 67.5104 23.4833 64.9475 23.486C55.0926 23.486 47.0835 31.6251 46.9108 41.7327C37.4458 42.4056 29.9724 50.4469 29.9724 60.2679C29.9724 64.9896 31.6996 69.2997 34.5451 72.5775C31.0482 75.9631 28.868 80.7487 28.868 86.0533C28.868 96.3151 37.027 104.634 47.0917 104.634C47.7593 104.634 48.4264 104.597 49.0899 104.523C57.6877 109.674 62.0244 120.086 63.2348 125.671C63.2348 125.671 67.2709 125.909 68.2207 125.136C72.166 123.065 78.5415 115.913 78.8435 102.125C82.3047 98.7427 84.46 93.9818 84.46 88.7079C84.4621 86.8097 84.1782 84.9221 83.6181 83.1088C89.1638 81.5465 93.649 77.3781 95.726 71.9775C98.0307 73.0103 100.527 73.5428 103.052 73.5398C108.967 73.5398 114.225 70.6661 117.554 66.2132C120.541 70.6382 125.546 73.5398 131.216 73.5398C135.717 73.5398 139.8 71.7116 142.785 68.7439Z" fill="#220F00"/>
</g>
</svg>
