<svg width="200" height="200" viewBox="0 0 200 200" fill="none" xmlns="http://www.w3.org/2000/svg">
<mask id="mask0_422_7015" style="mask-type:luminance" maskUnits="userSpaceOnUse" x="0" y="0" width="200" height="200">
<path d="M200 0H0V200H200V0Z" fill="white"/>
</mask>
<g mask="url(#mask0_422_7015)">
<path d="M116.015 33.3299C116.015 33.3299 162.972 40.6599 159.412 107.412C159.399 107.66 164.841 111.264 165.267 111.649C169.062 115.074 172.246 119.459 173.639 124.588C178.596 142.855 160.871 161.677 146.537 166.672C141.183 168.538 135.524 169.444 129.854 169.608C92.9922 170.679 44.1894 147.307 41.683 101.661C41.5938 100.025 41.5705 98.3859 41.6133 96.7481C41.8352 88.0811 43.9321 79.6402 47.0922 71.8027C47.0908 71.803 67.606 21.0384 116.015 33.3299Z" fill="#A47539"/>
<g style="mix-blend-mode:multiply" opacity="0.1">
<path d="M160.6 108.117C160.092 109.36 159.584 110.948 159.442 111.857C158.837 115.753 160.173 119.777 162.494 122.669C164.699 125.416 167.847 127.197 170.895 127.869C171.924 128.095 173.171 128.212 174.26 128.249C173.115 116.964 163.906 110.193 160.6 108.117ZM94.4088 137.775C103.131 135.903 108.547 126.735 106.505 117.298C104.462 107.86 95.7362 101.727 87.014 103.599C78.2917 105.471 72.8761 114.639 74.9183 124.077C76.9604 133.514 85.6866 139.647 94.4088 137.775Z" fill="#DC2400"/>
</g>
<path opacity="0.1" d="M137.111 111.378C137.111 111.378 144.559 104.307 150.326 110.955L137.111 111.378Z" fill="black"/>
<path d="M67.656 146.609C42.8599 159.007 20.3547 127.918 27.5633 110.442C32.1616 99.2948 45.5689 98.4281 53.338 108.61C57.923 114.62 61.6328 122.301 63.7393 129.65" fill="#A47539"/>
<path opacity="0.1" d="M47.2326 118.866C50.4231 122.105 52.9878 126.908 56.14 129.587C55.5574 125.104 54.6275 120.317 52.4445 116.276C50.2283 112.173 46.1976 108.793 42.0936 109.071C37.0079 109.417 32.8203 115.326 32.2817 120.684C32.6033 117.478 39.0686 115.308 41.5361 115.612C45.4002 122.878 46.8963 137.198 46.8963 137.198C50.1154 129.091 48.8119 122.715 47.2326 118.866Z" fill="black"/>
<path d="M148.001 123.64C149.075 124.257 156.583 114.826 161.582 117.695C163.269 118.664 164.557 120.316 165.524 122.101C167.648 126.028 168.375 130.799 167.52 135.2C166.308 141.423 162.111 146.517 157.173 149.894C143.886 158.979 133.346 157.262 119.165 152.003C108.003 147.864 92.7939 139.345 95.9446 123.974C101.491 96.9167 147.987 123.633 148.001 123.64Z" fill="#873C41"/>
<path d="M109.534 121.911C113.145 124.153 117.542 124.384 121.485 123.49C122.239 123.318 122.845 123.951 123.033 124.679C124.958 132.162 135.875 136.068 141.349 131.27C141.774 130.897 142.528 130.809 142.973 131.231C145.927 134.035 150.661 134.796 154.138 132.899C159.047 130.22 159.023 122.694 157.686 117.452C153.359 118.774 148.817 124.109 148.001 123.639C147.99 123.632 119.447 107.237 104.419 113.151C104.738 116.785 106.406 119.968 109.534 121.911Z" fill="white"/>
<path d="M150.474 151.016C142.667 143.849 133.067 139.847 123.334 137.006C115.008 134.576 105.634 133.002 97.2071 135.413C101.112 143.797 111.16 149.033 119.165 152.001C131.57 156.601 141.189 158.49 152.296 152.812C151.691 152.211 151.101 151.592 150.474 151.016Z" fill="#EE7E8B"/>
<path d="M149.299 97.7518C150.848 97.2156 153.327 96.1932 155.32 94.8715C156.433 96.1141 157.115 98.1112 157.112 99.8882C157.107 102.724 155.824 105.77 152.541 105.42C149.785 105.126 149.082 101.507 149.085 99.725C149.086 99.05 149.161 98.3827 149.299 97.7518ZM115.199 93.775C114.204 95.1073 113.551 96.9944 113.547 99.2744C113.538 103.711 115.736 106.04 119.038 106.925C123.625 107.628 125.834 104.195 125.842 99.9641C125.842 99.1995 125.747 98.4379 125.56 97.6966C123.216 97.7176 119.305 96.9117 115.199 93.775Z" fill="#2A1200"/>
<path d="M126.186 89.2157C121.327 90.0931 116.075 88.3632 112.506 84.7308C111.354 83.5598 111.002 81.4533 112.159 80.0882C113.228 78.8249 115.206 78.4099 116.438 79.665C116.804 80.0409 117.192 80.3954 117.599 80.7266C117.726 80.8288 118.075 81.0087 118.187 81.1612C118.249 81.2004 118.309 81.2396 118.372 81.2773C118.758 81.511 119.155 81.725 119.563 81.9186C119.796 82.029 120.031 82.1309 120.268 82.2275C120.343 82.2574 120.418 82.2862 120.495 82.3147C120.703 82.3472 120.942 82.4551 121.132 82.5036C121.811 82.6756 122.503 82.7914 123.202 82.8498C123.264 82.8552 123.325 82.8587 123.387 82.8623C123.626 82.857 123.864 82.8573 124.103 82.8438C124.612 82.8116 125.119 82.7496 125.62 82.6582C127.19 82.3739 128.85 83.8958 128.927 85.5979C129.009 87.4715 127.868 88.9114 126.186 89.2157ZM158.086 86.0504C155.989 88.2107 153.189 89.4244 150.347 89.4864C149.58 89.5032 148.746 89.0906 148.233 88.5067C147.727 87.9317 147.368 86.9941 147.434 86.1761C147.502 85.3272 147.798 84.4476 148.418 83.8609C149.046 83.2663 149.776 82.9357 150.609 82.9165C150.745 82.9136 150.88 82.8944 151.017 82.8847C151.428 82.8048 151.833 82.693 152.227 82.5502C152.69 82.3241 153.131 82.0564 153.546 81.7504C153.686 81.624 153.833 81.505 153.966 81.3682C154.54 80.7772 155.378 80.417 156.157 80.4234C156.903 80.4298 157.781 80.7953 158.27 81.4045C158.779 82.0351 159.14 82.8602 159.07 83.7351C159 84.6069 158.694 85.4245 158.086 86.0504Z" fill="#71472D"/>
<path d="M58.7832 114.219C94.7527 102.44 120.928 69.4225 132.503 53.36C137.489 65.3534 150.962 74.0628 157.076 76.9184C154.227 63.3545 146.748 49.7905 131.791 39.6176C119.824 31.4792 101.816 30.7535 94.7527 31.5863C14.2665 39.2606 17.1188 130.103 25.0723 167.583C35.0255 174.722 60.3203 188.5 81.8756 186.501C79.169 179.647 81.1601 164.667 82.288 158.659C77.8719 156.946 65.2531 146.404 61.2761 143.31C55.3999 145.809 53.0851 145.809 45.7843 144.381C19.4305 132.245 30.8267 113.148 30.8267 113.148C30.8267 113.148 34.3881 106.009 44.1817 105.831C52.0167 105.688 56.3497 110.055 58.7832 114.219ZM161.884 181.147C159.462 177.72 160.875 162.169 161.884 156.874C151.912 165.262 146.036 169.367 125.558 169.903C132.147 173.651 148.636 181.147 161.884 181.147Z" fill="#220F01"/>
<path fill-rule="evenodd" clip-rule="evenodd" d="M99.2731 35.145C92.8822 42.0969 81.8065 53.0144 69.2083 63.3334C56.9203 73.3982 42.8206 83.1985 30.0226 87.9922C29.5578 88.472 28.6066 89.7192 27.5136 92.393C26.2077 95.5877 24.8889 100.356 23.9309 107.09C22.016 120.552 21.4533 133.413 25.1286 164.37C25.4192 166.817 23.526 168.242 20.6769 167.583C18.3621 167.047 16.872 165.032 16.5814 162.585C12.8491 131.148 13.0582 120.302 15.117 105.83C16.1462 98.5971 17.6145 93.0712 19.2748 89.0099C20.8675 85.1138 22.8622 82.0031 25.3209 80.3511L25.7753 80.0459L26.2899 79.86C37.8059 75.6994 51.2474 66.5205 63.5743 56.4236C74.2433 47.6849 83.7948 38.4946 90.1336 31.8607C90.7369 31.2293 95.1088 29.98 100.361 31.2293C100.503 31.9217 100.478 32.6379 100.289 33.3188C100.099 33.9996 99.7513 34.6256 99.2731 35.145ZM80.6387 35.266C71.8885 44.0958 51.9152 63.4294 32.1458 71.9211C31.2794 72.2934 36.5975 71.2968 31.3609 72.2781C32.6316 67.0663 35.9244 60.8772 38.0847 58.7141C49.2367 52.2902 57.5663 44.3224 65.8588 36.9404C68.9341 35.5776 76.4282 32.9205 81.8026 33.1925C81.6098 33.9768 81.2074 34.6936 80.6387 35.266ZM40.0021 98.6082C80.2459 77.1029 108.811 46.0536 117.011 33.1925C114.304 30.908 109.346 30.9959 107.206 31.5038C99.9127 42.9425 74.5916 70.1999 34.9796 91.1776L34.7278 91.3108L34.4953 91.475C33.1886 92.3977 32.429 93.7676 31.9774 94.7392C31.4571 95.8586 31.0005 97.2279 30.5931 98.8166C29.7751 102.005 29.045 106.518 28.5108 112.649C27.4413 124.932 26.9388 139.806 28.5119 168.832C28.6451 171.292 31.539 173.294 32.9635 173.829H33.0155C33.695 173.831 37.0754 173.841 37.4152 172.044C36.688 158.624 36.5437 148.033 36.517 138.67C36.4316 138.524 36.1648 138.293 35.7784 137.958C33.7976 136.238 28.6607 131.78 28.5108 122.072C29.3997 114.506 31.3955 112.119 32.1458 111.222C32.2983 111.04 32.3994 110.919 32.4293 110.828C35.9907 107.259 38.0847 107.08 38.0847 107.08C38.4448 104.511 38.8344 102.527 39.2162 101.038C39.5203 99.8521 39.7963 99.0747 40.0021 98.6082ZM51.7709 163.446C51.8211 166.056 51.8372 168.203 51.8511 170.078C51.8799 173.958 51.9002 176.67 52.1947 179.897C52.4187 182.351 49.7018 182.396 48.2773 182.396C46.4966 182.039 43.8715 180.745 43.6475 178.291L43.6247 178.042L43.5774 177.525C43.1764 173.147 43.019 171.431 42.8694 163.617C42.734 156.539 42.8708 149.049 43.6764 143.31C44.879 144.024 48.3015 145.273 52.3728 145.273C51.7816 150.101 51.6431 156.77 51.7709 163.446ZM45.3071 100.815C84.8664 79.8657 113.785 45.9248 121.107 34.4418C123.303 34.7313 128.158 35.9196 130.01 38.3564C121.78 51.2647 92.2672 85.4819 51.4825 107.08C51.1915 107.234 50.5063 106.986 49.6687 106.683C48.9678 106.43 48.1601 106.137 47.3869 106.009C45.9652 105.774 43.4695 105.831 43.4695 105.831C42.3209 103.652 43.1336 101.966 45.3071 100.815ZM132.977 56.0203C122.562 70.3755 95.4649 99.9414 60.92 114.041C58.9727 115.072 58.8637 114.858 58.0367 113.237L58.0357 113.235C57.9399 113.047 57.8341 112.839 57.7148 112.613C57.2953 111.817 56.7098 111.254 56.2415 110.803C55.4277 110.02 54.9676 109.577 56.3472 108.846C95.7976 87.9548 120.831 58.7948 128.217 47.2094C128.823 46.2571 129.767 45.5713 130.858 45.2912C132.816 44.0636 135.417 44.5412 136.805 46.438C138.969 49.3957 142.873 54.1813 147.424 58.7395C149.198 60.516 151.015 62.2018 152.818 63.7114C154.409 67.3237 157.588 75.124 157.588 77.4284C151.827 74.8713 146.05 71.2179 141.228 66.3885C139.209 64.3657 137.267 61.7328 135.534 59.382L135.534 59.3816C134.617 58.138 133.758 56.9733 132.977 56.0203ZM65.0654 163.032C64.9781 158.174 64.9981 153.489 65.1843 149.487C65.2399 148.29 65.289 147.538 65.3717 146.523L61.2761 143.31C60.1365 143.881 57.5962 144.619 56.4683 144.917C56.3846 145.821 56.3647 146.616 56.3433 147.47C56.3305 147.972 56.3173 148.495 56.2906 149.071C56.0923 153.336 56.0744 158.23 56.1635 163.192C56.3366 172.809 56.6503 176.839 57.1332 183.037L57.1806 183.645C57.3718 186.102 61.8103 187.215 61.8103 187.215C61.8103 187.215 65.7278 187.036 65.9059 185.787C65.4066 179.37 65.2399 172.742 65.0654 163.032ZM70.7649 163.192C70.8248 166.51 70.8415 169.282 70.8565 171.747C70.886 176.659 70.9085 180.354 71.2479 184.716C71.4391 187.173 73.9605 188.299 76.4118 188.107C78.8631 187.915 80.5205 187.53 80.3293 185.073C78.7213 177.342 78.8296 174.705 79.1188 167.657C79.1636 166.561 79.2128 165.358 79.2609 164.013C79.2423 162.992 79.3449 161.647 79.4443 160.338C79.5312 159.197 79.6159 158.082 79.617 157.231C78.3705 156.517 73.1745 152.769 70.7137 150.806C70.6025 154.279 70.6773 158.388 70.7486 162.296V162.296L70.7649 163.192ZM158.692 159.551C160.556 158.02 162.119 156.465 162.062 156.874C162.005 157.283 161.938 157.746 161.864 158.253C161.427 161.271 160.764 165.844 160.644 169.806C160.498 174.644 161.355 178.714 162.062 180.79C162.366 181.682 159.569 181.503 157.254 181.503C154.761 181.503 152.451 180.611 152.268 180.076C150.981 176.297 151.6 174.33 151.745 169.536C151.8 167.723 151.902 165.912 152.031 164.192C152.031 164.192 155.651 162.05 158.692 159.551ZM149.597 165.441C149.597 165.262 147.817 166.333 144.789 167.226C141.584 168.297 139.804 168.475 139.804 168.475C139.804 170.498 139.737 169.574 139.565 172.95C139.512 173.987 139.509 173.353 139.565 174.543V176.685C140.726 178.857 141.762 178.683 144.255 179.218C146.748 179.431 148.885 179.719 148.707 178.291C148.529 176.863 148.305 176.375 148.456 173.405C148.596 170.671 149.597 167.109 149.597 165.441Z" fill="#71472D"/>
<mask id="mask1_422_7015" style="mask-type:alpha" maskUnits="userSpaceOnUse" x="13" y="30" width="150" height="159">
<path fill-rule="evenodd" clip-rule="evenodd" d="M99.2731 35.145C92.8822 42.0969 81.8065 53.0144 69.2083 63.3334C56.9203 73.3982 42.8206 83.1985 30.0226 87.9922C29.5578 88.472 28.6066 89.7192 27.5136 92.393C26.2077 95.5877 24.8889 100.356 23.9309 107.09C22.016 120.552 21.4533 133.413 25.1286 164.37C25.4192 166.817 23.526 168.242 20.6769 167.583C18.3621 167.047 16.872 165.032 16.5814 162.585C12.8491 131.148 13.0582 120.302 15.117 105.83C16.1462 98.5971 17.6145 93.0712 19.2748 89.0099C20.8675 85.1138 22.8622 82.0031 25.3209 80.3511L25.7753 80.0459L26.2899 79.86C37.8059 75.6994 51.2474 66.5205 63.5743 56.4236C74.2433 47.6849 83.7948 38.4946 90.1336 31.8607C90.7369 31.2293 95.1088 29.98 100.361 31.2293C100.503 31.9217 100.478 32.6379 100.289 33.3188C100.099 33.9996 99.7513 34.6256 99.2731 35.145ZM80.6387 35.266C71.8885 44.0958 51.7464 63.4294 31.9774 71.9211C31.1109 72.2934 32.2196 71.7405 31.3609 71.5642C32.6316 66.3524 35.9244 60.6987 38.0847 58.5357C49.2367 52.1117 57.5663 44.3224 65.8588 36.9404C68.9341 35.5776 76.4282 32.9205 81.8026 33.1925C81.6098 33.9768 81.2074 34.6936 80.6387 35.266ZM40.0021 98.6082C80.2459 77.1029 108.811 46.0536 117.011 33.1925C114.304 30.908 109.346 30.9959 107.206 31.5038C99.9127 42.9425 74.5916 70.1999 34.9796 91.1776L34.7278 91.3108L34.4953 91.475C33.1886 92.3977 32.429 93.7676 31.9774 94.7392C31.4571 95.8586 31.0005 97.2279 30.5931 98.8166C29.7751 102.005 29.045 106.518 28.5108 112.649C27.4413 124.932 26.9388 139.806 28.5119 168.832C28.6451 171.292 31.539 173.294 32.9635 173.829H33.0155C33.695 173.831 37.0754 173.841 37.4152 172.044C36.688 158.624 36.5437 148.033 36.517 138.67C36.4316 138.524 36.1648 138.293 35.7784 137.958C33.7976 136.238 28.6607 131.78 28.5108 122.072C29.3997 114.506 31.3955 112.119 32.1458 111.222C32.2983 111.04 32.3994 110.919 32.4293 110.828C35.9907 107.259 38.0847 107.08 38.0847 107.08C38.4448 104.511 38.8344 102.527 39.2162 101.038C39.5203 99.8521 39.7963 99.0747 40.0021 98.6082ZM51.7709 163.446C51.8211 166.056 51.8372 168.203 51.8511 170.078C51.8799 173.958 51.9002 176.67 52.1947 179.897C52.4187 182.351 49.7018 182.396 48.2773 182.396C46.4966 182.039 43.8715 180.745 43.6475 178.291L43.6247 178.042L43.5774 177.525C43.1764 173.147 43.019 171.431 42.8694 163.617C42.734 156.539 42.8708 149.049 43.6764 143.31C44.879 144.024 48.3015 145.273 52.3728 145.273C51.7816 150.101 51.6431 156.77 51.7709 163.446ZM45.3071 100.815C84.8664 79.8657 113.785 45.9248 121.107 34.4418C123.303 34.7313 128.158 35.9196 130.01 38.3564C121.78 51.2647 92.2672 85.4819 51.4825 107.08C51.1915 107.234 50.5063 106.986 49.6687 106.683C48.9678 106.43 48.1601 106.137 47.3869 106.009C45.9652 105.774 43.4695 105.831 43.4695 105.831C42.3209 103.652 43.1336 101.966 45.3071 100.815ZM132.977 56.0203C122.562 70.3755 95.4649 99.9414 60.92 114.041C58.9727 115.072 58.8637 114.858 58.0367 113.237L58.0357 113.235C57.9399 113.047 57.8341 112.839 57.7148 112.613C57.2953 111.817 56.7098 111.254 56.2415 110.803C55.4277 110.02 54.9676 109.577 56.3472 108.846C95.7976 87.9548 120.831 58.7948 128.217 47.2094C128.823 46.2571 129.767 45.5713 130.858 45.2912C132.816 44.0636 135.417 44.5412 136.805 46.438C138.969 49.3957 142.873 54.1813 147.424 58.7395C149.198 60.516 151.015 62.2018 152.818 63.7114C154.409 67.3237 157.588 75.124 157.588 77.4284C151.827 74.8713 146.05 71.2179 141.228 66.3885C139.209 64.3657 137.267 61.7328 135.534 59.382L135.534 59.3816C134.617 58.138 133.758 56.9733 132.977 56.0203ZM65.0654 163.032C64.9781 158.174 64.9981 153.489 65.1843 149.487C65.2399 148.29 65.289 147.538 65.3717 146.523L61.2761 143.31C60.1365 143.881 57.5962 144.619 56.4683 144.917C56.3846 145.821 56.3647 146.616 56.3433 147.47C56.3305 147.972 56.3173 148.495 56.2906 149.071C56.0923 153.336 56.0744 158.23 56.1635 163.192C56.3366 172.809 56.6503 176.839 57.1332 183.037L57.1806 183.645C57.3718 186.102 61.8103 187.215 61.8103 187.215C61.8103 187.215 65.7278 187.036 65.9059 185.787C65.4066 179.37 65.2399 172.742 65.0654 163.032ZM70.7649 163.192C70.8248 166.51 70.8415 169.282 70.8565 171.747C70.886 176.659 70.9085 180.354 71.2479 184.716C71.4391 187.173 73.9605 188.299 76.4118 188.107C78.8631 187.915 80.5205 187.53 80.3293 185.073C78.7213 177.342 78.8296 174.705 79.1188 167.657C79.1636 166.561 79.2128 165.358 79.2609 164.013C79.2423 162.992 79.3449 161.647 79.4443 160.338C79.5312 159.197 79.6159 158.082 79.617 157.231C78.3705 156.517 73.1745 152.769 70.7137 150.806C70.6025 154.279 70.6773 158.388 70.7486 162.296V162.296L70.7649 163.192ZM158.692 159.551C160.556 158.02 162.119 156.465 162.062 156.874C162.005 157.283 161.938 157.746 161.864 158.253C161.427 161.271 160.764 165.844 160.644 169.806C160.498 174.644 161.355 178.714 162.062 180.79C162.366 181.682 159.569 181.503 157.254 181.503C154.761 181.503 152.451 180.611 152.268 180.076C150.981 176.297 151.6 174.33 151.745 169.536C151.8 167.723 151.902 165.912 152.031 164.192C152.031 164.192 155.651 162.05 158.692 159.551ZM149.597 165.441C149.597 165.262 147.817 166.333 144.789 167.226C141.584 168.297 139.804 168.475 139.804 168.475C139.804 170.498 139.737 169.574 139.565 172.95C139.512 173.987 139.509 173.353 139.565 174.543V176.685C140.726 178.857 141.762 178.683 144.255 179.218C146.748 179.431 148.885 179.719 148.707 178.291C148.529 176.863 148.305 176.375 148.456 173.405C148.596 170.671 149.597 167.109 149.597 165.441Z" fill="black" fill-opacity="0.5"/>
</mask>
<g mask="url(#mask1_422_7015)">
<path d="M67.98 32.6292C68.3304 30.2766 69.0384 28.0653 69.605 26.866L71.8579 27.9354C71.4099 28.8834 70.7649 30.8538 70.4455 32.9983C70.1705 34.8426 70.1684 36.6092 70.579 37.9245C71.0025 37.9281 71.4302 37.9359 71.8526 37.9441H71.8583C72.5769 37.9577 73.2828 37.9713 73.9687 37.9641C75.3647 37.9495 76.5482 37.8492 77.4293 37.5594L78.2067 39.9334C76.9378 40.3507 75.4271 40.4478 73.9943 40.4624C73.2707 40.4699 72.5331 40.456 71.8259 40.4428L71.8112 40.4424C71.0919 40.4288 70.4049 40.416 69.7556 40.4238C66.2695 40.4663 61.4973 39.8624 59.6126 39.5686L59.9955 37.1C61.5361 37.3398 64.9945 37.781 67.9992 37.8981C67.6374 36.1955 67.7307 34.3008 67.98 32.6292ZM86.8223 34.0659C87.1731 31.7133 87.8807 29.5024 88.4477 28.3027L90.7006 29.3721C90.2525 30.3205 89.6076 32.2905 89.2881 34.4354C89.0128 36.2793 89.0111 38.0459 89.4217 39.3612C89.8448 39.3648 90.2725 39.373 90.6952 39.3808H90.7009C91.4196 39.3948 92.1254 39.408 92.8114 39.4008C94.2074 39.3866 95.3908 39.2859 96.2719 38.9961L97.049 41.3701C96.2719 41.6257 95.4037 41.7613 94.518 41.8313C96.2082 42.0786 99.3439 42.4584 102.098 42.5659C101.736 40.8632 101.83 38.9682 102.079 37.2966C102.429 34.944 103.137 32.7331 103.704 31.5334L105.957 32.6028C105.509 33.5512 104.864 35.5212 104.544 37.6661C104.269 39.5101 104.267 41.2766 104.678 42.5919C105.101 42.5955 105.529 42.6037 105.951 42.6116H105.952L105.957 42.6119C106.676 42.6255 107.382 42.6387 108.068 42.6316C109.464 42.6173 110.647 42.5166 111.528 42.2268L112.305 44.6008C112.244 44.6212 112.183 44.6404 112.121 44.659C113.596 44.8007 115.281 44.9256 116.843 44.9645C116.458 43.2673 116.525 41.3712 116.751 39.6964C117.069 37.3391 117.746 35.1186 118.296 33.9114L120.564 34.9494C120.129 35.9035 119.511 37.8824 119.221 40.0316C118.971 41.8791 118.994 43.6456 119.423 44.9553C119.844 44.9528 120.27 44.9549 120.691 44.9571H120.702C121.421 44.9606 122.127 44.9642 122.812 44.9478C124.208 44.9139 125.39 44.7971 126.267 44.4952L127.077 46.8581C125.815 47.2929 124.305 47.4111 122.873 47.4457C122.149 47.4632 121.412 47.4592 120.704 47.4557H120.689C119.97 47.4521 119.283 47.4489 118.634 47.4657C115.148 47.5563 110.369 47.0188 108.48 46.7514L108.71 45.118C108.504 45.1241 108.298 45.128 108.093 45.1302C107.37 45.1377 106.632 45.1237 105.925 45.1102L105.91 45.1098C105.191 45.0963 104.504 45.0834 103.854 45.0913C100.368 45.1337 95.5963 44.5301 93.7113 44.2364L94.0799 41.8609C93.6659 41.8831 93.2515 41.896 92.837 41.8995C92.1133 41.907 91.3758 41.893 90.6685 41.8795L90.6539 41.8791C89.9345 41.8655 89.2475 41.8527 88.5983 41.8605C85.1118 41.903 80.3399 41.2994 78.4549 41.0057L78.8381 38.5367C80.3788 38.7769 83.8372 39.2181 86.8419 39.3352C86.48 37.6325 86.5733 35.7375 86.8223 34.0659ZM122.542 54.697C122.695 52.323 123.214 50.0599 123.678 48.8171L126.013 49.693C125.647 50.6753 125.169 52.6931 125.03 54.8569C124.911 56.7181 125.057 58.4782 125.577 59.7546C125.999 59.7221 126.426 59.6943 126.847 59.6668H126.848L126.853 59.6664C127.57 59.6193 128.275 59.5733 128.957 59.5083C130.347 59.3762 131.518 59.1763 132.372 58.8133L133.346 61.1135C132.117 61.6361 130.619 61.8602 129.193 61.9959C128.472 62.064 127.736 62.1122 127.03 62.1586L127.016 62.1597C126.298 62.2065 125.612 62.2518 124.966 62.3143C121.495 62.6505 116.69 62.451 114.787 62.3171L114.961 59.8246C116.517 59.9338 120 60.0823 123.004 59.9456C122.5 58.2797 122.435 56.3836 122.542 54.697ZM109.545 69.0563C109.569 66.8585 109.968 64.739 110.371 63.5561L112.731 64.3628C112.424 65.2637 112.059 67.1159 112.038 69.0834C112.02 70.7642 112.256 72.3145 112.815 73.4121C113.245 73.3557 113.681 73.3035 114.112 73.2518H114.114L114.118 73.2511C114.831 73.1658 115.534 73.0815 116.214 72.9816C117.597 72.7778 118.766 72.524 119.61 72.1363L120.649 74.4076C119.461 74.9534 117.99 75.2453 116.576 75.4534C115.862 75.5587 115.131 75.6462 114.428 75.7304L114.414 75.7322C113.701 75.8175 113.017 75.8996 112.373 75.9956C108.947 76.5057 102.903 76.7491 100.979 76.7399L100.991 74.2412C102.543 74.2487 106.941 74.0806 110.242 73.7408C109.687 72.2538 109.529 70.5622 109.545 69.0563ZM94.4749 78.9312C94.0464 80.1048 93.6009 82.2151 93.5293 84.4117C93.4809 85.9037 93.5988 87.5817 94.1098 89.0709C92.6632 89.1355 90.8996 89.1327 89.1767 89.1009C87.4501 89.0688 85.8418 89.0099 84.6805 88.9674H84.6794L84.6776 88.967H84.6769C84.1648 88.9485 83.7396 88.9328 83.4305 88.9242C83.4892 88.9049 83.5473 88.8853 83.605 88.865L82.7794 86.5073C81.9037 86.8154 80.716 86.9603 79.32 87.0356C78.6337 87.0724 77.9268 87.0913 77.2088 87.1106L77.2045 87.1109H77.2035C76.769 87.1227 76.3299 87.1345 75.8965 87.1505C75.441 86.0062 75.348 84.4406 75.5207 82.7687C75.7223 80.8115 76.2554 79.0008 76.6436 78.132L74.3683 77.1111C73.8587 78.2519 73.2664 80.3254 73.041 82.5117C72.8878 83.9962 72.8878 85.6789 73.2931 87.2002C71.8454 87.1627 70.0865 87.036 68.3703 86.8825C67.1712 86.7758 66.0305 86.6594 65.0582 86.5569C66.1783 86.4781 67.2948 86.3246 68.2574 86.0012L67.4643 83.6321C66.5846 83.928 65.3952 84.0565 63.998 84.1122C63.3114 84.1397 62.6045 84.1486 61.8862 84.1583H61.8783C61.4446 84.164 61.0062 84.1697 60.5735 84.1797C60.1336 83.0289 60.0624 81.4626 60.2579 79.7928C60.4869 77.8389 61.045 76.0356 61.4449 75.1725L59.1838 74.1199C58.6585 75.2535 58.0378 77.3188 57.7821 79.5016C57.6087 80.9843 57.5851 82.6666 57.9694 84.1933C56.5228 84.1358 54.7656 83.9844 53.0516 83.8074C51.3322 83.63 49.7328 83.4355 48.5792 83.2952C48.0475 83.2306 47.6106 83.1774 47.3 83.1428L47.024 85.626C47.2954 85.6564 47.7053 85.706 48.2146 85.7677L48.216 85.7681H48.2171L48.2185 85.7685C49.3809 85.9098 51.0601 86.1136 52.7959 86.2928C55.292 86.5505 58.0706 86.7765 59.8612 86.7019C60.5115 86.6751 61.1995 86.6658 61.9186 86.6565L61.9325 86.6562L62.576 86.6476L62.3684 88.7843C62.6405 88.8111 63.0514 88.8553 63.5621 88.9099C64.7267 89.0352 66.4094 89.2162 68.1491 89.3715C70.6485 89.5946 73.4299 89.7816 75.2191 89.6824C75.869 89.6463 76.5571 89.6278 77.2758 89.6085L77.2896 89.6081H77.2904C77.9976 89.5888 78.7331 89.5692 79.4535 89.5307C80.7983 89.4582 82.2004 89.3165 83.3895 88.9374L83.3229 91.4207C83.5964 91.4282 84.0095 91.4432 84.5227 91.4621H84.5266C85.6965 91.5049 87.386 91.5667 89.1307 91.5992C91.6393 91.6456 94.4271 91.6363 96.205 91.4114C96.8506 91.3297 97.5358 91.2626 98.2513 91.1926L98.2652 91.1912H98.2659C98.97 91.1226 99.7025 91.0509 100.418 90.9617C101.836 90.7846 103.313 90.5248 104.513 90.0054L103.524 87.7117C102.672 88.0808 101.497 88.3088 100.11 88.482C99.4283 88.5673 98.7246 88.6362 98.0095 88.7058L98.0052 88.7061C97.5725 88.7486 97.1348 88.7914 96.7032 88.8378C96.1683 87.7284 95.9663 86.1736 96.0212 84.4934C96.0853 82.527 96.4899 80.683 96.8161 79.7893L94.4749 78.9312ZM75.7465 98.3326C75.7921 96.1349 76.2123 94.0196 76.6265 92.841L78.9777 93.6709C78.6625 94.5686 78.2797 96.4172 78.2387 98.3843C78.2042 100.065 78.425 101.618 78.9727 102.721C79.404 102.668 79.841 102.621 80.2733 102.573L80.2776 102.573C80.9917 102.494 81.6943 102.417 82.3752 102.324C83.7606 102.134 84.9323 101.892 85.7799 101.513L86.7959 103.794C85.6029 104.328 84.1288 104.606 82.7128 104.799C81.9981 104.897 81.2666 104.977 80.5629 105.055L80.549 105.056C79.8342 105.135 79.1501 105.21 78.5055 105.299C76.7166 105.548 73.1282 105.55 69.8611 105.496C68.2043 105.468 66.5946 105.426 65.2833 105.388L64.2591 105.358H64.2566C63.6725 105.339 63.0883 105.324 62.5041 105.311L62.5411 102.813C62.893 102.818 63.5351 102.837 64.3584 102.861L65.3549 102.89C66.6626 102.928 68.2606 102.97 69.9024 102.998C72.2575 103.036 74.6347 103.042 76.3755 102.965C75.8523 101.487 75.7159 99.8186 75.7465 98.3326ZM54.2386 151.241C54.9013 152.283 55.9017 153.579 57.0848 154.75C58.1265 155.781 59.4093 156.816 60.8181 157.454C59.7985 158.51 58.4146 159.75 56.9965 160.968C56.2924 161.571 55.585 162.169 54.8743 162.764L54.8696 162.768C54.6072 162.989 54.3543 163.201 54.1139 163.404C53.293 164.096 52.5754 164.711 52.1929 165.104L53.9772 166.849C54.2542 166.564 54.8618 166.039 55.719 165.316L56.4651 164.688C57.1861 164.085 57.9039 163.477 58.6183 162.866C60.6607 161.112 62.9403 159.058 64.028 157.535C64.4065 157.004 64.8228 156.454 65.2577 155.88L65.2659 155.869C65.6939 155.304 66.1391 154.717 66.5597 154.129C67.3934 152.966 68.2061 151.703 68.6402 150.467L66.2887 149.637C65.9806 150.515 65.3499 151.534 64.5347 152.672C64.1341 153.232 63.7064 153.796 63.2719 154.37L63.2694 154.373C63.0066 154.72 62.7405 155.071 62.4816 155.42C61.306 155.061 60.0296 154.153 58.8366 152.972C57.4398 151.589 56.3643 150.039 55.9313 149.192L55.3465 149.493C55.4708 149.256 55.5833 149.019 55.6813 148.782L53.3781 147.825C53.0231 148.684 52.3386 149.668 51.4629 150.761C51.0327 151.298 50.5754 151.838 50.1106 152.387L50.1039 152.395C49.8239 152.726 49.5408 153.061 49.2648 153.394C48.1102 152.971 46.8848 151.996 45.7569 150.752C44.4371 149.295 43.4463 147.689 43.0595 146.82L40.7831 147.838C41.291 148.979 42.437 150.805 43.9118 152.432C44.9089 153.532 46.1533 154.649 47.5472 155.362C46.3356 156.617 44.6062 158.252 42.8694 159.847C41.6585 160.959 40.4694 162.029 39.4943 162.903C39.2307 163.14 38.9815 163.363 38.751 163.569L38.7404 163.578L38.7375 163.581C38.3757 163.905 38.0609 164.186 37.8116 164.411C38.4654 163.396 39.0623 162.327 39.3953 161.286L37.0217 160.523C36.7382 161.408 36.1367 162.445 35.3539 163.606C34.9693 164.177 34.5576 164.753 34.1395 165.339L34.1373 165.342C33.8845 165.697 33.6281 166.055 33.3795 166.412C32.1939 166.085 30.8926 165.215 29.6664 164.068C28.2312 162.725 27.1122 161.206 26.6557 160.372L24.4701 161.574C25.0702 162.67 26.3622 164.395 27.9655 165.894C29.0574 166.916 30.4004 167.934 31.8602 168.527C29.6141 171.42 25.8287 175.567 24.7229 176.769L26.5553 178.463C27.8063 177.103 33.0323 171.388 34.9849 168.481C35.3482 167.94 35.7488 167.379 36.1673 166.793L36.1755 166.781V166.781C36.5875 166.204 37.0156 165.604 37.4195 165.005L37.4953 164.892L39.0854 166.626C39.3301 166.4 39.7863 165.992 40.391 165.451L40.3921 165.45L40.8209 165.066L41.156 164.766C42.1339 163.889 43.332 162.811 44.5539 161.689C46.9628 159.476 49.5665 157.002 50.695 155.588C51.1017 155.079 51.5469 154.553 52.0117 154.004L52.0209 153.993C52.4902 153.443 52.9521 152.887 53.4066 152.325C53.6925 151.97 53.9699 151.609 54.2386 151.241Z" fill="black" fill-opacity="0.5"/>
<path d="M56.9566 174.739C55.7807 173.575 54.7853 172.288 54.1225 171.248C53.7815 171.735 53.4239 172.209 53.0505 172.671C52.5961 173.233 52.1341 173.789 51.6648 174.339L51.6556 174.35C51.1908 174.899 50.7457 175.425 50.339 175.934C49.2104 177.348 46.6067 179.822 44.1978 182.035C43.0714 183.067 41.9389 184.093 40.8003 185.111L40.0442 185.788L40.036 185.796L40.0349 185.796C39.4302 186.338 38.9737 186.746 38.7294 186.971L37.0424 185.132C37.3013 184.893 37.7803 184.465 38.395 183.915L38.4138 183.898L39.1382 183.249C40.1136 182.375 41.3028 181.305 42.5133 180.193C44.2501 178.598 45.9795 176.963 47.1911 175.708C45.7972 174.995 44.5529 173.878 43.5557 172.778C42.0813 171.151 40.9345 169.325 40.427 168.184L42.7035 167.166C43.0906 168.035 44.081 169.641 45.4008 171.097C46.5287 172.342 47.7541 173.317 48.9087 173.74C49.1847 173.406 49.4678 173.072 49.7478 172.741L49.7545 172.733C50.2193 172.184 50.6766 171.644 51.1068 171.107C51.9825 170.014 52.667 169.031 53.0221 168.171L55.3252 169.127C55.2717 169.257 55.2141 169.386 55.1521 169.516L55.8031 169.181C56.2362 170.028 57.3117 171.578 58.7084 172.961C59.9015 174.142 61.1775 175.05 62.3535 175.409C62.6124 175.06 62.8784 174.709 63.1412 174.362L63.1437 174.358C63.5782 173.785 64.0059 173.221 64.4066 172.661C65.2218 171.523 65.8525 170.504 66.1605 169.626L68.5121 170.456C68.0779 171.692 67.2653 172.955 66.4315 174.118C66.011 174.706 65.5658 175.293 65.1377 175.858L65.1292 175.869C64.6947 176.443 64.2784 176.993 63.8998 177.524C62.8122 179.047 60.5326 181.101 58.4898 182.854C57.7426 183.496 57.0022 184.118 56.3369 184.677C56.0752 184.897 55.8255 185.107 55.5908 185.305C54.7333 186.028 54.1261 186.553 53.8486 186.838L52.0648 185.093C52.4473 184.7 53.1649 184.085 53.9858 183.393L54.7461 182.753C55.4082 182.197 56.1315 181.589 56.8683 180.957C58.2864 179.739 59.6704 178.499 60.69 177.443C59.2811 176.805 57.998 175.77 56.9566 174.739Z" fill="black" fill-opacity="0.5"/>
<path d="M67.8301 161.397C68.3988 162.51 69.6417 164.27 71.2019 165.815C72.2433 166.846 73.5264 167.881 74.9353 168.52C73.9157 169.575 72.5317 170.816 71.1136 172.033C70.3768 172.666 69.6535 173.273 68.9914 173.829L68.2311 174.469C67.4102 175.162 66.6926 175.777 66.3101 176.169L68.094 177.914C68.3714 177.629 68.9786 177.104 69.8362 176.381C70.0709 176.183 70.3205 175.973 70.5823 175.753C71.2475 175.194 71.9879 174.573 72.7351 173.931C74.7779 172.177 77.0575 170.124 78.1451 168.6C78.5237 168.069 78.94 167.52 79.3745 166.946L79.383 166.935C79.8111 166.37 80.2563 165.782 80.6769 165.195C81.5106 164.031 82.3233 162.768 82.7574 161.533L80.4059 160.703C80.0978 161.58 79.4671 162.599 78.6519 163.737C78.2512 164.297 77.8235 164.862 77.389 165.435L77.3866 165.438C77.1237 165.785 76.8577 166.137 76.5988 166.486C75.4228 166.126 74.1468 165.218 72.9538 164.037C71.557 162.655 70.4815 161.105 70.0484 160.258L67.8301 161.397ZM140.769 59.5996C138.403 59.4129 136.094 59.6071 134.8 59.8905L135.333 62.3317C136.356 62.1072 138.416 61.9205 140.573 62.0908C142.428 62.2367 144.146 62.6322 145.332 63.3294C145.24 63.7434 145.152 64.1632 145.064 64.5776L145.063 64.583C144.915 65.2879 144.769 65.98 144.608 66.6482C144.28 68.0086 143.916 69.1415 143.436 69.9368L145.569 71.23C146.26 70.0849 146.695 68.6314 147.031 67.2351C147.201 66.5304 147.354 65.8073 147.5 65.1134L147.502 65.0987C147.651 64.3931 147.793 63.7195 147.947 63.087C148.772 59.6917 149.259 54.8958 149.397 52.989L146.911 52.8077C146.797 54.3664 146.449 57.8431 145.887 60.804C144.313 60.0676 142.45 59.7324 140.769 59.5996ZM157.29 64.4976C157.692 65.6802 158.091 67.7997 158.115 69.9978C158.131 71.5034 157.974 73.1953 157.419 74.682C160.72 75.0222 165.118 75.1903 166.67 75.1825L166.682 77.6811C164.757 77.6907 158.714 77.4473 155.288 76.9368C154.644 76.8412 153.96 76.7591 153.246 76.6734L153.232 76.6716C152.53 76.5874 151.799 76.4999 151.085 76.395C149.671 76.1865 148.2 75.8946 147.012 75.3492L148.051 73.0775C148.895 73.4652 150.064 73.719 151.447 73.9228C152.127 74.0227 152.829 74.107 153.542 74.1926L153.546 74.193C153.978 74.2448 154.415 74.2972 154.846 74.3533C155.404 73.2557 155.64 71.7054 155.622 70.0246C155.601 68.0575 155.237 66.2049 154.93 65.304L157.29 64.4976ZM162.195 167.6C163.755 166.055 164.998 164.294 165.567 163.182L163.349 162.042C162.916 162.889 161.84 164.439 160.443 165.822C159.25 167.003 157.974 167.911 156.798 168.27C156.537 167.92 156.275 167.571 156.01 167.223L156.008 167.22C155.573 166.646 155.146 166.082 154.745 165.522C153.93 164.384 153.299 163.365 152.991 162.487L150.64 163.317C151.074 164.553 151.886 165.816 152.72 166.979C153.141 167.567 153.586 168.154 154.014 168.719L154.022 168.73C154.457 169.304 154.873 169.854 155.252 170.385C156.34 171.908 158.619 173.962 160.662 175.716C161.376 176.327 162.094 176.935 162.815 177.538L163.125 177.799L163.56 178.166C164.418 178.889 165.026 179.414 165.303 179.699L167.087 177.954C166.704 177.561 165.987 176.946 165.166 176.254L164.406 175.614C163.743 175.058 163.02 174.451 162.283 173.818C160.865 172.6 159.481 171.36 158.462 170.304C159.871 169.666 161.153 168.631 162.195 167.6ZM151.678 168.179C151.109 169.292 149.866 171.052 148.306 172.597C147.264 173.628 145.981 174.663 144.573 175.301C145.592 176.357 146.976 177.598 148.394 178.815C149.098 179.418 149.806 180.017 150.516 180.611L150.546 180.637L151.003 181.02L151.277 181.251C152.098 181.944 152.815 182.559 153.197 182.951L151.413 184.696C151.136 184.411 150.529 183.886 149.671 183.163C149.437 182.965 149.187 182.755 148.926 182.535C148.205 181.932 147.487 181.324 146.772 180.713C144.73 178.959 142.45 176.906 141.363 175.382C140.984 174.851 140.568 174.302 140.133 173.728L140.125 173.717C139.697 173.152 139.252 172.564 138.831 171.977C137.997 170.813 137.185 169.55 136.75 168.315L139.102 167.485C139.41 168.362 140.041 169.381 140.856 170.519C141.257 171.079 141.684 171.643 142.119 172.217L142.121 172.22C142.384 172.567 142.65 172.919 142.909 173.268C144.085 172.908 145.361 172 146.554 170.819C147.951 169.436 149.026 167.887 149.459 167.04L151.678 168.179ZM104.066 54.9136C104.384 52.5564 105.061 50.3358 105.611 49.1286L107.879 50.1666C107.444 51.1207 106.826 53.0996 106.536 55.2488C106.287 57.0967 106.309 58.8629 106.738 60.1725C107.161 60.17 107.589 60.1722 108.011 60.1743H108.017C108.736 60.1782 109.442 60.1818 110.128 60.165C111.523 60.1311 112.705 60.0144 113.583 59.7124L114.392 62.0754C113.13 62.5102 111.62 62.6283 110.188 62.6629C109.464 62.6804 108.727 62.6769 108.019 62.6729H108.005C107.285 62.6694 106.598 62.6662 105.949 62.6829C102.464 62.7736 97.6837 62.2364 95.7951 61.9687L96.0515 60.15C95.7662 60.1611 95.4813 60.1672 95.1996 60.17C94.4763 60.1775 93.7395 60.1636 93.0322 60.15H93.0162C92.2971 60.1361 91.6102 60.1233 90.9606 60.1315C87.4744 60.1736 82.7026 59.57 80.8175 59.2762L81.2007 56.8072C82.7414 57.0475 86.1998 57.4887 89.2045 57.6057C88.8426 55.9031 88.936 54.0084 89.1849 52.3365C89.5357 49.9842 90.2433 47.7729 90.8103 46.5736L93.0632 47.643C92.6152 48.5911 91.9702 50.5614 91.6504 52.7059C91.3755 54.5503 91.3737 56.3164 91.7843 57.6321C92.2077 57.6354 92.6355 57.6436 93.0578 57.6514L93.0635 57.6518C93.7822 57.6653 94.4877 57.6785 95.1736 57.6714C96.57 57.6571 97.7535 57.5565 98.6345 57.2666L99.4116 59.641C99.2143 59.7056 99.0113 59.7628 98.8033 59.8131C100.416 59.9794 102.368 60.1372 104.158 60.1818C103.773 58.4845 103.84 56.5888 104.066 54.9136ZM90.0941 68.3223C90.2718 66.1314 90.8188 64.0454 91.3032 62.8939L93.6002 63.8648C93.2313 64.7414 92.7377 66.5636 92.5788 68.5247C92.4428 70.2002 92.5696 71.7633 93.0504 72.8973C93.4854 72.8722 93.9206 72.8495 94.3559 72.8291H94.3574L94.3613 72.8288C95.0789 72.7938 95.7851 72.7592 96.4703 72.7074C97.8646 72.6017 99.0487 72.4308 99.9173 72.1034L100.794 74.4425C99.5712 74.903 98.0836 75.0907 96.6583 75.1989C95.939 75.2531 95.2039 75.2892 94.4966 75.3238L94.4827 75.3245C93.7648 75.3595 93.0771 75.3934 92.4282 75.4434C88.9748 75.7111 82.9287 75.5283 81.0098 75.3834L81.1972 72.8919C82.7446 73.0087 87.1435 73.1507 90.4602 73.0444C90.0108 71.522 89.9723 69.8233 90.0941 68.3223ZM54.3258 95.1454C54.5253 92.9566 55.093 90.8759 55.5887 89.7294L57.8761 90.7228C57.4986 91.5963 56.9869 93.4135 56.8085 95.3727C56.656 97.0468 56.7675 98.611 57.2365 99.7496C57.6689 99.7286 58.1069 99.7114 58.54 99.6946H58.5425L58.5435 99.6943H58.5485C59.2661 99.6664 59.9727 99.639 60.6586 99.5936C62.0536 99.5019 63.2395 99.3427 64.1113 99.0243L64.965 101.372C63.7374 101.82 62.2477 101.993 60.8217 102.087C60.102 102.134 59.3669 102.163 58.66 102.19H58.6589L58.645 102.191C57.9267 102.219 57.239 102.246 56.5894 102.29C54.7878 102.411 51.2083 102.16 47.9528 101.877C46.3022 101.732 44.6992 101.576 43.394 101.447L42.4342 101.351L42.3744 101.344C41.7922 101.284 41.2097 101.228 40.6268 101.174L40.807 99.0611C37.2101 99.2021 29.8257 98.4903 28.0325 98.3118L28.279 95.8253C29.9022 95.987 35.4846 96.5203 39.141 96.5767C38.735 95.0515 38.7383 93.3635 38.8946 91.8747C39.1243 89.6887 39.7205 87.6163 40.2319 86.4766L42.5054 87.5017C42.1158 88.3698 41.5795 90.1795 41.3736 92.1363C41.1981 93.8082 41.2882 95.3734 41.7412 96.5189C42.1749 96.5035 42.6137 96.4925 43.0482 96.4818H43.0539C43.7718 96.4636 44.4788 96.4461 45.165 96.4104C46.5611 96.3379 47.7491 96.1951 48.6256 95.8889L49.4465 98.2479C48.2128 98.6795 46.721 98.8315 45.294 98.9058C44.7608 98.9333 44.2199 98.9504 43.6878 98.9647C44.9809 99.0935 46.5529 99.2463 48.169 99.3873C50.5159 99.5922 52.8867 99.765 54.6286 99.811C54.2105 98.2997 54.1912 96.6256 54.3258 95.1454Z" fill="black" fill-opacity="0.5"/>
<path d="M76.3135 60.139C75.8131 61.2837 75.2373 63.3622 75.0293 65.5503C74.8872 67.0491 74.9018 68.7482 75.3306 70.2766C72.0125 70.3373 67.616 70.1342 66.0704 69.9961L65.8489 72.4847C67.7656 72.6564 73.8085 72.923 77.2651 72.7031C77.9147 72.6617 78.6027 72.6378 79.3211 72.6125L79.3353 72.6121C80.0426 72.5875 80.778 72.5618 81.4981 72.5172C82.9248 72.429 84.4148 72.262 85.6442 71.8183L84.7998 69.4674C83.9266 69.7823 82.7399 69.9368 81.3446 70.0232C80.6587 70.0657 79.9521 70.0903 79.2342 70.1156H79.2299C78.7954 70.1306 78.3559 70.1463 77.9222 70.166C77.4574 69.0252 77.352 67.4607 77.5112 65.787C77.6974 63.8284 78.216 62.0133 78.597 61.1417L76.3135 60.139ZM29.3901 111.995C27.7868 110.496 26.4947 108.771 25.8946 107.676L28.0799 106.473C28.5368 107.308 29.6558 108.826 31.091 110.169C32.3171 111.316 33.6185 112.186 34.804 112.513C35.053 112.156 35.3087 111.798 35.5619 111.444L35.5644 111.44C35.9821 110.855 36.3938 110.278 36.7788 109.707C37.5612 108.547 38.1627 107.51 38.4462 106.624L40.8198 107.387C40.421 108.634 39.6442 109.92 38.844 111.107C38.4398 111.706 38.0117 112.306 37.6 112.882L37.5918 112.894C37.1734 113.48 36.7727 114.041 36.4095 114.582C34.4568 117.489 29.2309 123.204 27.9798 124.564L26.1475 122.87C27.2533 121.668 31.0386 117.521 33.2848 114.629C31.825 114.035 30.482 113.017 29.3901 111.995ZM24.4701 138.373C25.0702 139.468 26.3622 141.193 27.9656 142.693C29.0575 143.714 30.4008 144.733 31.8606 145.326C29.6141 148.218 25.8288 152.365 24.723 153.567L26.5553 155.261C27.8064 153.902 33.0323 148.186 34.9849 145.28C35.3482 144.738 35.7488 144.177 36.1673 143.591L36.1755 143.58L36.1762 143.579C36.5879 143.002 37.0156 142.403 37.4195 141.804C38.2197 140.617 38.9964 139.331 39.3953 138.084L37.0217 137.321C36.7382 138.207 36.1367 139.244 35.3539 140.405C34.9693 140.975 34.5576 141.552 34.1395 142.137L34.1373 142.141C33.8829 142.496 33.6302 142.853 33.3795 143.21C32.1939 142.884 30.8926 142.013 29.6664 140.866C28.2312 139.524 27.1126 138.005 26.6557 137.171L24.4701 138.373ZM74.2974 41.8862C73.7305 43.0856 73.0228 45.2968 72.672 47.6495C72.4231 49.3211 72.3298 51.2157 72.6916 52.9184C69.6869 52.8013 66.2285 52.3601 64.6879 52.1202L64.305 54.5892C66.1897 54.8826 70.9615 55.4866 74.4481 55.4441C75.0973 55.4363 75.7843 55.4491 76.5037 55.4627L76.5183 55.463C77.2256 55.4762 77.9631 55.4902 78.6868 55.4827C80.1195 55.468 81.6302 55.3709 82.8988 54.9537L82.1217 52.5796C81.2406 52.8695 80.0572 52.9698 78.6611 52.9844C77.9752 52.9915 77.2694 52.978 76.5507 52.9644H76.545C76.1205 52.9555 75.696 52.949 75.2715 52.9448C74.8608 51.6294 74.863 49.8629 75.1379 48.0186C75.4574 45.874 76.1023 43.9037 76.5503 42.9556L74.2974 41.8862ZM59.5247 54.5667C59.0243 55.7115 58.4484 57.7896 58.2404 59.9777C58.098 61.4768 58.113 63.1759 58.5414 64.7043C55.5894 64.7582 51.7834 64.6033 49.8916 64.4713L49.1683 62.4581C48.2951 62.7733 47.1084 62.9278 45.7131 63.0139C45.0272 63.0563 44.3206 63.0813 43.6027 63.1063H43.598C43.1635 63.1216 42.7244 63.137 42.291 63.1566C41.8259 62.0158 41.7205 60.4513 41.8797 58.778C42.0659 56.8194 42.5845 55.004 42.9655 54.1323L40.682 53.1297C40.1816 54.2744 39.6058 56.3529 39.3978 58.541C39.2553 60.0401 39.2706 61.7392 39.6991 63.2676C36.3813 63.328 31.9845 63.1252 30.4389 62.9867L30.2174 65.4754C32.1341 65.647 38.177 65.9137 41.6336 65.6938C42.2832 65.6528 42.9712 65.6285 43.6896 65.6035L43.7038 65.6028C44.4111 65.5782 45.1465 65.5525 45.8666 65.5078C47.0005 65.4379 48.1747 65.3179 49.226 65.0488L49.0597 66.9124C50.9764 67.0838 57.0196 67.3504 60.4763 67.1309C61.1258 67.0895 61.8139 67.0652 62.5322 67.0402L62.5461 67.0398C63.2537 67.0149 63.9892 66.9892 64.7093 66.9449C66.1359 66.8564 67.626 66.6893 68.8554 66.2456L68.011 63.8948C67.1377 64.21 65.9511 64.3645 64.5558 64.4509C63.8699 64.4934 63.1633 64.518 62.4453 64.543L62.441 64.5434C62.0066 64.5584 61.5671 64.5737 61.1333 64.5933C60.6686 63.4529 60.5632 61.8884 60.7223 60.2147C60.9082 58.2561 61.4271 56.4411 61.8078 55.5694L59.5247 54.5667ZM42.5838 72.6261C43.0389 70.585 43.8491 68.6918 44.4812 67.6674L46.6013 68.982C46.1323 69.7419 45.4186 71.3689 45.0165 73.1711C44.6746 74.7045 44.6062 76.1527 44.926 77.2521C45.3659 77.287 45.811 77.327 46.2519 77.3666L46.2558 77.367C46.971 77.4313 47.6761 77.4948 48.3627 77.5387C49.7588 77.6286 50.9611 77.629 51.8703 77.4384L52.3803 79.8842C51.1178 80.1487 49.6274 80.1237 48.2032 80.0323C47.4842 79.9859 46.7519 79.9202 46.0468 79.8571L46.0333 79.8556C45.3178 79.7914 44.6312 79.73 43.9809 79.6893C41.0196 79.5037 35.2293 78.2301 32.4717 77.6236L32.4664 77.6226C31.977 77.5151 31.5839 77.4284 31.3193 77.3731L31.8303 74.9273C32.1387 74.9922 32.5778 75.0886 33.111 75.2053C35.3998 75.7076 39.4263 76.5906 42.3252 76.9986C42.1044 75.5334 42.2825 73.9778 42.5838 72.6261ZM20.0387 81.9745C20.1776 83.2166 20.7172 85.3044 21.6299 87.3029C22.2518 88.664 23.1072 90.1182 24.2315 91.224C21.0559 93.0412 15.9802 95.4317 14.5012 96.1209L15.5522 98.3865C17.2253 97.6069 24.2286 94.3159 27.1383 92.373C27.6799 92.0114 28.2636 91.6452 28.8726 91.2629L28.8847 91.2554C29.4848 90.8792 30.1088 90.488 30.7099 90.0878C31.9005 89.2958 33.107 88.4034 33.9497 87.4025L32.0443 85.7913C31.446 86.502 30.4959 87.2312 29.3313 88.0061C28.7587 88.387 28.1593 88.7629 27.5503 89.1451L27.5467 89.1473L27.5457 89.148L27.5435 89.1491L27.5425 89.1498C27.1753 89.3804 26.8042 89.6131 26.4399 89.8469C25.4676 89.0927 24.5951 87.7912 23.8967 86.2628C23.0794 84.4738 22.6218 82.6423 22.516 81.6968L20.0387 81.9745Z" fill="black" fill-opacity="0.5"/>
<path d="M15.5009 116.636C13.8976 115.136 12.6055 113.411 12.0055 112.316L14.191 111.114C14.6476 111.948 15.7666 113.467 17.2018 114.809C18.428 115.956 19.7293 116.827 20.9148 117.153C21.1634 116.797 21.4191 116.439 21.672 116.085L21.6727 116.084L21.6752 116.08C22.0929 115.495 22.5046 114.918 22.8896 114.348C23.672 113.187 24.2735 112.15 24.557 111.264L26.9306 112.027C26.5318 113.274 25.755 114.56 24.9548 115.747C24.551 116.346 24.1229 116.946 23.7112 117.522L23.7108 117.523L23.7026 117.534C23.2842 118.12 22.8835 118.681 22.5203 119.223C20.5676 122.129 15.3417 127.845 14.0906 129.204L12.258 127.51C13.3641 126.308 17.1494 122.161 19.3959 119.269C17.9358 118.676 16.5932 117.657 15.5009 116.636ZM9.86865 135.161C10.4687 136.256 11.7608 137.981 13.3641 139.48C14.456 140.502 15.799 141.52 17.2588 142.113C15.0126 145.006 11.2273 149.153 10.1212 150.355L11.9538 152.049C13.2049 150.689 18.4308 144.974 20.3835 142.067C20.7467 141.526 21.1474 140.965 21.5659 140.379L21.574 140.367V140.367C21.9861 139.79 22.4142 139.19 22.818 138.591C23.6182 137.405 24.395 136.119 24.7938 134.872L22.4202 134.109C22.1367 134.995 21.5352 136.031 20.7524 137.192C20.3678 137.763 19.9561 138.339 19.538 138.925L19.5359 138.928C19.283 139.283 19.0266 139.641 18.778 139.998C17.5925 139.671 16.2912 138.801 15.065 137.654C13.6298 136.311 12.5108 134.793 12.0539 133.958L9.86865 135.161ZM14.7886 160.897C13.1853 159.397 11.8933 157.673 11.2932 156.577L13.4788 155.375C13.9353 156.209 15.0543 157.728 16.4895 159.071C17.7157 160.217 19.017 161.088 20.2026 161.415C20.4515 161.058 20.7072 160.7 20.9604 160.345L20.9629 160.342C21.3807 159.756 21.7924 159.18 22.1773 158.609C22.9598 157.448 23.5613 156.411 23.8447 155.526L26.2184 156.289C25.8195 157.536 25.0428 158.821 24.2425 160.008C23.8387 160.607 23.4106 161.207 22.9989 161.784L22.9986 161.784L22.9904 161.795C22.5719 162.382 22.1713 162.943 21.808 163.484C19.8553 166.391 14.6294 172.106 13.3783 173.465L11.5457 171.771C12.6518 170.57 16.4372 166.423 18.6837 163.53C17.2235 162.937 15.8809 161.919 14.7886 160.897ZM55.4548 40.4496C54.8882 41.6489 54.1802 43.8602 53.8297 46.2125C53.5805 47.8844 53.4871 49.7791 53.849 51.4817C50.8443 51.3646 47.3859 50.9235 45.8452 50.6832L45.4624 53.1522C47.3471 53.446 52.1192 54.0496 55.6054 54.0071C56.2547 53.9993 56.9416 54.0121 57.661 54.0257L57.6756 54.026C58.3829 54.0396 59.1205 54.0535 59.8441 54.046C61.2769 54.0314 62.7876 53.9339 64.0565 53.5167L63.279 51.1426C62.398 51.4325 61.2145 51.5331 59.8185 51.5474C59.1326 51.5545 58.4267 51.5413 57.708 51.5278L57.7023 51.5274C57.28 51.5195 56.8523 51.5113 56.4288 51.5081C56.0182 50.1924 56.0203 48.4263 56.2953 46.5819C56.6147 44.437 57.2597 42.467 57.7077 41.519L55.4548 40.4496Z" fill="black" fill-opacity="0.5"/>
</g>
</g>
</svg>
