<svg width="200" height="200" viewBox="0 0 200 200" fill="none" xmlns="http://www.w3.org/2000/svg">
<mask id="mask0_422_7082" style="mask-type:luminance" maskUnits="userSpaceOnUse" x="0" y="0" width="200" height="200">
<path d="M200 0H0V200H200V0Z" fill="white"/>
</mask>
<g mask="url(#mask0_422_7082)">
<path d="M116.015 33.33C116.015 33.33 162.972 40.66 159.412 107.412C159.399 107.66 164.841 111.264 165.267 111.65C169.062 115.074 172.246 119.459 173.639 124.588C178.596 142.855 160.871 161.677 146.537 166.672C141.183 168.538 135.524 169.444 129.854 169.609C92.9922 170.68 44.1894 147.307 41.683 101.661C41.5938 100.025 41.5705 98.386 41.6133 96.7482C41.8352 88.0813 43.9321 79.6404 47.0922 71.8028C47.0908 71.8032 67.606 21.0385 116.015 33.33Z" fill="#C99C62"/>
<g style="mix-blend-mode:multiply" opacity="0.1">
<path d="M160.6 108.117C160.092 109.36 159.584 110.948 159.442 111.857C158.837 115.753 160.173 119.777 162.494 122.67C164.699 125.416 167.847 127.197 170.895 127.869C171.924 128.096 173.171 128.212 174.26 128.249C173.115 116.964 163.906 110.193 160.6 108.117ZM94.4088 137.776C103.131 135.903 108.547 126.735 106.505 117.298C104.462 107.86 95.7362 101.727 87.014 103.599C78.2917 105.471 72.8761 114.639 74.9183 124.077C76.9604 133.515 85.6866 139.647 94.4088 137.776Z" fill="#DC2400"/>
</g>
<path opacity="0.1" d="M137.11 111.378C137.11 111.378 144.559 104.307 150.326 110.955L137.11 111.378Z" fill="black"/>
<path d="M67.656 146.609C42.8599 159.007 20.3547 127.918 27.5633 110.442C32.1616 99.295 45.5689 98.4282 53.338 108.61C57.923 114.62 61.6328 122.302 63.7393 129.65" fill="#C99C62"/>
<path opacity="0.1" d="M47.2327 118.866C50.4231 122.105 52.9878 126.908 56.1401 129.587C55.5575 125.104 54.6276 120.317 52.4446 116.276C50.2284 112.173 46.1977 108.793 42.0937 109.071C37.0079 109.417 32.8203 115.326 32.2817 120.684C32.6034 117.478 39.0687 115.308 41.5361 115.612C45.4003 122.878 46.8964 137.198 46.8964 137.198C50.1154 129.091 48.812 122.715 47.2327 118.866Z" fill="black"/>
<path d="M133.177 120.381C145.892 121.194 153.753 120.381 156.289 120.381C166.968 118.781 171.533 137.636 158.127 147.529C154.125 150.483 152.151 150.023 143.603 150.023C135.048 150.023 125.799 153.211 120.633 151.755C105.988 147.628 103.416 137.023 104.73 131.186C106.508 123.29 110.127 118.907 133.177 120.381Z" fill="white"/>
<mask id="mask1_422_7082" style="mask-type:alpha" maskUnits="userSpaceOnUse" x="104" y="120" width="63" height="33">
<path d="M133.177 120.381C145.892 121.194 153.753 120.381 156.289 120.381C166.968 118.781 171.533 137.636 158.127 147.529C154.125 150.483 152.151 150.023 143.603 150.023C135.048 150.023 125.799 153.211 120.633 151.755C105.988 147.628 103.416 137.023 104.73 131.186C106.508 123.29 110.127 118.907 133.177 120.381Z" fill="white"/>
</mask>
<g mask="url(#mask1_422_7082)">
<path fill-rule="evenodd" clip-rule="evenodd" d="M109.708 153.23L115.923 114.979L118.032 115.321L111.817 153.573L109.708 153.23ZM137.274 158.309L138.796 119.27L140.932 119.353L139.409 158.392L137.274 158.309ZM161.067 147.696L156.214 116.936L158.325 116.603L163.178 147.363L161.067 147.696Z" fill="#D1D3D4"/>
</g>
<path d="M149.299 97.7519C150.848 97.2157 153.327 96.1933 155.32 94.8716C156.433 96.1142 157.116 98.1114 157.112 99.8883C157.107 102.724 155.824 105.77 152.541 105.42C149.785 105.126 149.082 101.507 149.085 99.7252C149.087 99.0501 149.161 98.3828 149.299 97.7519ZM115.199 93.7751C114.204 95.1075 113.551 96.9945 113.547 99.2745C113.538 103.711 115.736 106.04 119.038 106.925C123.625 107.629 125.834 104.195 125.842 99.9642C125.842 99.1997 125.747 98.438 125.56 97.6967C123.216 97.7177 119.305 96.9119 115.199 93.7751Z" fill="#2A1200"/>
<path d="M126.186 89.2158C121.327 90.0932 116.075 88.3633 112.506 84.731C111.354 83.56 111.002 81.4535 112.159 80.0883C113.228 78.825 115.206 78.41 116.438 79.6651C116.804 80.0411 117.192 80.3955 117.599 80.7267C117.726 80.8289 118.075 81.0089 118.187 81.1613C118.249 81.2005 118.309 81.2397 118.372 81.2775C118.758 81.5111 119.155 81.7251 119.563 81.9187C119.796 82.0292 120.031 82.131 120.268 82.2276C120.343 82.2575 120.418 82.2864 120.495 82.3149C120.703 82.3473 120.942 82.4552 121.132 82.5037C121.811 82.6758 122.503 82.7916 123.202 82.85C123.264 82.8553 123.325 82.8589 123.387 82.8624C123.626 82.8571 123.864 82.8574 124.103 82.8439C124.612 82.8117 125.119 82.7498 125.62 82.6583C127.19 82.374 128.85 83.8959 128.927 85.5981C129.009 87.4716 127.868 88.9115 126.186 89.2158ZM158.086 86.0505C155.989 88.2108 153.189 89.4245 150.347 89.4865C149.58 89.5033 148.746 89.0907 148.233 88.5068C147.727 87.9319 147.368 86.9942 147.434 86.1763C147.502 85.3273 147.798 84.4477 148.418 83.861C149.046 83.2664 149.776 82.9358 150.609 82.9166C150.745 82.9137 150.88 82.8945 151.017 82.8849C151.428 82.8049 151.833 82.6931 152.227 82.5503C152.69 82.3243 153.131 82.0566 153.546 81.7506C153.686 81.6241 153.833 81.5051 153.966 81.3683C154.54 80.7773 155.378 80.4171 156.157 80.4235C156.903 80.4299 157.781 80.7955 158.27 81.4046C158.779 82.0352 159.14 82.8603 159.07 83.7352C159 84.607 158.694 85.4246 158.086 86.0505Z" fill="#71472D"/>
<path d="M154.484 38.2641C161.654 36.1199 163.908 45.3841 164.219 51.5357C164.239 51.9501 164.251 52.3516 164.256 52.735C164.334 59.9196 161.879 67.787 155.541 71.0563C155.461 71.0984 154.087 69.6003 153.262 68.7012C152.947 68.3578 152.713 68.1019 152.661 68.0523C150.037 65.5583 147.182 63.3459 144.181 61.4231C134.826 55.4282 124.286 52.6993 113.462 53.3743C100.568 54.1788 86.4694 57.6002 76.7559 66.4874C67.2001 75.2304 61.3097 90.2189 61.6277 104.577C61.6362 104.952 61.6701 105.549 61.7117 106.284C61.9126 109.825 62.2972 116.599 60.92 117.61L60.7049 117.718C60.5554 117.832 60.3036 118.026 59.857 118.378C58.7587 119.184 57.5168 116.995 55.8355 114.032C53.8202 110.479 51.1734 105.814 47.387 103.868C44.3004 102.143 36.4893 100.62 29.9364 107.616C29.1992 104.26 28.8584 101.883 28.7007 99.9029L28.6836 99.9414L28.6729 99.5292C28.6164 98.7066 28.5831 97.8825 28.5732 97.058C28.5668 97.1159 28.565 97.3122 28.565 97.3122V97.2661C28.5643 96.9756 28.565 96.685 28.5668 96.3948C28.565 96.0311 28.565 95.6684 28.565 95.3011C28.5589 91.4347 28.7527 89.464 29.1269 85.6861L29.1476 85.4787C30.4913 71.9058 34.5459 58.5082 42.378 47.6985C50.3596 36.6796 62.6088 29.0145 74.7213 24.4731C76.0014 23.9925 77.2951 23.5489 78.6006 23.1428C90.7562 19.3652 103.914 19.0204 116.005 23.0328C124.295 25.7824 131.902 30.4955 138.992 35.966C139.469 35.325 140.034 34.7374 140.717 34.257C143.68 32.1771 148.209 33.5106 149.869 36.8691C150.468 38.0799 150.947 39.3063 151.275 40.5364C152.123 39.4652 153.227 38.6396 154.484 38.2641Z" fill="#3A1A00"/>
<path d="M116.005 23.0342C124.295 25.7841 131.902 30.4972 138.992 35.9678C139.359 35.4724 139.799 35.029 140.286 34.6275C139.317 35.7329 138.555 37.1671 137.913 38.5328C135.051 36.1084 131.449 34.7749 127.834 35.885C124.375 36.9483 121.933 39.8828 120.464 43.3237C112.215 38.3533 103.386 36.4582 93.2534 38.3711C81.1213 40.6613 70.5192 49.1066 63.4781 59.9424C53.9982 74.5329 53.8907 102.152 61.0297 117.455C60.8573 117.618 61.0297 117.455 59.857 118.378C57.4417 120.151 54.3316 107.437 47.387 103.868C44.3004 102.143 36.4893 100.62 29.9364 107.616C28.565 101.369 28.565 98.5136 28.565 95.3011C28.5589 91.4161 28.7544 89.4454 29.1323 85.6322L29.1476 85.4801C30.4913 71.9076 34.5459 58.51 42.3779 47.6999C50.3596 36.6813 62.6088 29.0163 74.7213 24.4749C76.0014 23.9943 77.2951 23.5507 78.6006 23.1445C90.7562 19.367 103.914 19.0222 116.005 23.0342Z" fill="black" fill-opacity="0.05"/>
<path fill-rule="evenodd" clip-rule="evenodd" d="M62.402 103.542C70.4669 106.824 78.5871 111.55 83.6083 114.905L82.6204 116.39C77.6697 113.082 69.6571 108.421 61.7317 105.195C57.7683 103.582 53.859 102.341 50.3846 101.799C46.8888 101.253 43.9578 101.434 41.8545 102.52L41.0389 100.934C43.6366 99.5923 47.0181 99.467 50.6585 100.035C54.3199 100.607 58.3702 101.901 62.402 103.542ZM82.7183 147.201C83.786 146.913 84.8566 146.637 85.9299 146.371L86.353 148.104C85.2953 148.363 84.2892 148.631 83.3187 148.889C80.7036 149.585 78.3482 150.211 75.9468 150.416C72.5713 150.703 69.0805 150.173 64.4059 148.05L65.141 146.425C69.5834 148.442 72.7701 148.894 75.7961 148.637C78.0312 148.447 80.168 147.879 82.7183 147.201Z" fill="white"/>
<path d="M143.479 106.01C118.407 105.867 92.7893 111.543 83.1143 114.398C88.1001 122.965 89.8808 135.637 84.8949 148.487C101.241 157.767 139.677 172.259 162.656 155.983C166.776 151.765 171.491 144.976 173.75 135.637C177.169 121.502 165.559 111.067 159.327 107.616C155.908 107.045 149.177 106.043 143.479 106.01Z" fill="#F7F7F7"/>
<path d="M81.1555 115.826C82.0102 114.398 85.7853 113.268 87.9221 113.149C88.9905 114.22 91.1985 119.253 91.4834 130.818C91.8395 145.274 88.9905 149.379 88.6343 150.271C88.3697 150.934 83.6485 148.487 82.5801 147.951C81.5117 147.416 81.5117 146.345 82.5801 144.025C84.8789 139.033 83.6485 124.571 82.5801 121.359C81.7253 118.789 81.5117 116.778 81.1555 115.826Z" fill="#EDEDED"/>
<path d="M151.492 117.789C138.956 116.076 113.742 124.214 102.702 128.498C143.443 118.218 167.399 124.214 174.284 128.498C171.91 125.642 164.028 119.503 151.492 117.789ZM116.947 138.849C126.206 143.251 149.498 149.986 168.586 141.705C159.683 148.844 136.89 158.267 116.947 138.849Z" fill="#EDEDED"/>
</g>
</svg>
