<svg width="200" height="200" viewBox="0 0 200 200" fill="none" xmlns="http://www.w3.org/2000/svg">
<g filter="url(#filter0_d_422_6903)">
<mask id="mask0_422_6903" style="mask-type:luminance" maskUnits="userSpaceOnUse" x="0" y="0" width="200" height="200">
<path d="M200 0H0V200H200V0Z" fill="white"/>
</mask>
<g mask="url(#mask0_422_6903)">
<path d="M116.015 33.33C116.015 33.33 162.972 40.66 159.412 107.412C159.399 107.66 164.841 111.264 165.267 111.65C169.062 115.074 172.246 119.459 173.639 124.588C178.596 142.855 160.871 161.677 146.537 166.672C141.183 168.538 135.524 169.444 129.854 169.609C92.9922 170.68 44.1894 147.307 41.683 101.661C41.5938 100.025 41.5705 98.386 41.6133 96.7482C41.8352 88.0813 43.9321 79.6404 47.0922 71.8028C47.0908 71.8032 67.606 21.0385 116.015 33.33Z" fill="#643D19"/>
<g style="mix-blend-mode:multiply" opacity="0.1">
<path d="M160.6 108.117C160.092 109.36 159.584 110.948 159.442 111.857C158.837 115.753 160.173 119.777 162.494 122.67C164.699 125.416 167.847 127.197 170.895 127.869C171.924 128.096 173.171 128.212 174.26 128.249C173.115 116.964 163.906 110.193 160.6 108.117ZM94.4088 137.776C103.131 135.903 108.547 126.735 106.505 117.298C104.462 107.86 95.7362 101.727 87.014 103.599C78.2917 105.471 72.8761 114.639 74.9183 124.077C76.9604 133.515 85.6866 139.647 94.4088 137.776Z" fill="#DC2400"/>
</g>
<path opacity="0.1" d="M137.11 111.378C137.11 111.378 144.559 104.307 150.326 110.955L137.11 111.378Z" fill="black"/>
<path d="M67.656 146.609C42.8599 159.007 20.3547 127.918 27.5633 110.442C32.1616 99.295 45.5689 98.4283 53.338 108.61C57.923 114.62 61.6328 122.302 63.7393 129.65" fill="#643D19"/>
<path opacity="0.1" d="M47.2327 118.866C50.4231 122.105 52.9878 126.908 56.1401 129.587C55.5575 125.104 54.6276 120.317 52.4446 116.276C50.2284 112.173 46.1977 108.793 42.0937 109.071C37.0079 109.417 32.8203 115.326 32.2817 120.684C32.6034 117.478 39.0687 115.308 41.5361 115.612C45.4003 122.878 46.8964 137.198 46.8964 137.198C50.1154 129.091 48.812 122.715 47.2327 118.866Z" fill="black"/>
<path d="M133.177 120.381C145.892 121.194 153.753 120.381 156.289 120.381C166.968 118.781 171.533 137.636 158.127 147.529C154.125 150.483 152.151 150.023 143.603 150.023C135.048 150.023 125.799 153.211 120.633 151.755C105.988 147.628 103.416 137.023 104.73 131.186C106.508 123.29 110.127 118.907 133.177 120.381Z" fill="white"/>
<mask id="mask1_422_6903" style="mask-type:alpha" maskUnits="userSpaceOnUse" x="104" y="120" width="63" height="33">
<path d="M133.177 120.381C145.892 121.194 153.753 120.381 156.289 120.381C166.968 118.781 171.533 137.636 158.127 147.529C154.125 150.483 152.151 150.023 143.603 150.023C135.048 150.023 125.799 153.211 120.633 151.755C105.988 147.628 103.416 137.023 104.73 131.186C106.508 123.29 110.127 118.907 133.177 120.381Z" fill="white"/>
</mask>
<g mask="url(#mask1_422_6903)">
<path fill-rule="evenodd" clip-rule="evenodd" d="M109.708 153.23L115.923 114.979L118.032 115.321L111.817 153.573L109.708 153.23ZM137.274 158.309L138.796 119.27L140.932 119.353L139.409 158.392L137.274 158.309ZM161.067 147.696L156.214 116.936L158.325 116.603L163.178 147.362L161.067 147.696Z" fill="#D1D3D4"/>
</g>
<path d="M129.314 95.9164C123.751 100.185 116.955 99.3453 113.965 98.3047C113.895 98.2805 113.842 98.371 113.891 98.4266C121.575 107.149 127.361 100.614 129.426 95.9977C129.455 95.93 129.373 95.8712 129.314 95.9164ZM148.935 98.3995C151.677 101.455 155.074 100.813 156.68 99.9944C156.744 99.9616 156.815 100.05 156.777 100.112C152.696 106.837 149.83 102.005 148.813 98.4593C148.791 98.3852 148.883 98.3418 148.935 98.3995Z" fill="#2A1200"/>
<path d="M127.915 79.9137C123.491 77.722 117.964 77.9258 113.528 80.4249C112.097 81.2307 111.173 83.1566 111.907 84.7893C112.584 86.2994 114.369 87.2474 115.9 86.3832C116.356 86.1239 116.827 85.8911 117.31 85.686C117.46 85.6226 117.847 85.547 117.996 85.4316C118.066 85.411 118.135 85.3903 118.205 85.3714C118.641 85.2539 119.082 85.1585 119.527 85.0857C119.781 85.0449 120.036 85.0113 120.291 84.9849C120.372 84.9767 120.452 84.9703 120.533 84.9639C120.742 84.9902 121.002 84.9532 121.197 84.9596C121.898 84.9828 122.595 85.0636 123.282 85.2011C123.343 85.2136 123.403 85.2268 123.464 85.2407C123.692 85.3119 123.921 85.3778 124.147 85.4576C124.627 85.6295 125.096 85.8296 125.553 86.0568C126.982 86.7654 128.999 85.764 129.545 84.1502C130.143 82.3728 129.446 80.6728 127.915 79.9137ZM158.749 81.4541C156.104 80.0177 153.07 79.6949 150.338 80.484C149.601 80.697 148.928 81.3394 148.613 82.0497C148.301 82.7494 148.238 83.7515 148.544 84.5125C148.863 85.3026 149.407 86.054 150.174 86.4288C150.952 86.8089 151.746 86.9068 152.547 86.6767C152.679 86.6386 152.813 86.6165 152.946 86.5851C153.363 86.5384 153.782 86.5245 154.201 86.5435C154.707 86.6201 155.206 86.7433 155.699 86.9129C155.87 86.9916 156.045 87.0618 156.213 87.1523C156.938 87.5452 157.845 87.6389 158.586 87.4003C159.297 87.1715 160.025 86.5609 160.311 85.8331C160.608 85.0796 160.707 84.184 160.379 83.3704C160.053 82.5588 159.516 81.8698 158.749 81.4541Z" fill="#71472D"/>
<path d="M164.199 30.4573C137.845 12.3719 77.1597 -10.0918 45.2501 44.7351L55.287 56.1363C49.2612 64.1451 46.3263 71.1002 46.1404 71.5642C42.9915 79.4235 41.8807 88.0819 41.6592 96.7732C41.6172 98.4137 41.6393 100.058 41.7287 101.7C55.2938 104.01 61.7181 118.585 63.2348 125.583C63.2348 125.583 67.2709 125.821 68.2207 125.048C73.2066 122.43 82.0743 111.698 77.6582 89.7103C75.5214 79.7158 76.946 71.7581 94.3965 59.3699C101.723 54.1688 110.869 52.5173 119.437 52.6943C118.45 52.6555 117.464 52.62 116.477 52.5879C119.148 52.6772 121.563 52.7664 123.842 52.9281C123.562 52.9081 123.28 52.8895 122.996 52.8717C133.379 53.6859 142.352 56.9502 145.324 59.3699C149.882 63.0821 152.067 64.486 152.59 64.7241C150.607 60.2134 148.293 56.3351 145.809 53.0027C148.612 46.2072 153.619 37.1068 160.306 32.5083C161.547 31.6552 162.845 30.957 164.199 30.4573Z" fill="#E2BA87"/>
<path d="M45.2501 44.7351C77.1597 -10.0918 137.845 12.3719 164.199 30.4573C157.047 25.5493 123.065 16.001 107.573 23.8538L107.712 24.0929C78.1618 17.6676 53.8906 34.9777 45.2501 44.7351Z" fill="white" fill-opacity="0.2"/>
<path d="M164.199 30.4573C153.372 34.455 146.036 51.1601 143.899 58.299C133.749 53.3018 127.161 52.9448 116.477 52.5879C117.901 40.8801 110.185 28.3748 107.573 23.8538C123.065 16.0009 157.047 25.5492 164.199 30.4573Z" fill="black" fill-opacity="0.1"/>
<path d="M116.54 52.0096C116.28 47.7377 102.063 37.322 87.63 39.0239C68.3557 41.2966 56.8244 55.0865 55.9341 56.8712L55.287 56.1363C49.2612 64.1451 46.3263 71.1002 46.1404 71.5642C42.9915 79.4234 41.8807 88.0818 41.6592 96.7731C41.6172 98.4136 41.6393 100.058 41.7287 101.7C55.2938 104.01 61.7181 118.585 63.2348 125.583C63.2348 125.583 67.2709 125.821 68.2207 125.048C73.2066 122.43 82.0743 111.698 77.6582 89.7102C75.5214 79.7158 76.946 71.758 94.3965 59.3698C101.723 54.1688 110.869 52.5172 119.437 52.6942C118.483 52.656 117.499 52.6218 116.477 52.5879C116.5 52.3951 116.521 52.2024 116.54 52.0096ZM122.996 52.8716C133.379 53.6858 142.352 56.9501 145.324 59.3698C149.882 63.0821 152.067 64.486 152.59 64.724C150.607 60.2133 148.293 56.3351 145.809 53.0026C144.979 55.0151 144.342 56.8255 143.912 58.2569L143.899 58.299C136.287 54.5511 130.678 53.4131 123.842 52.928C123.562 52.9081 123.28 52.8895 122.996 52.8716Z" fill="white" fill-opacity="0.7"/>
</g>
</g>
<defs>
<filter id="filter0_d_422_6903" x="-4" y="0" width="208" height="208" filterUnits="userSpaceOnUse" color-interpolation-filters="sRGB">
<feFlood flood-opacity="0" result="BackgroundImageFix"/>
<feColorMatrix in="SourceAlpha" type="matrix" values="0 0 0 0 0 0 0 0 0 0 0 0 0 0 0 0 0 0 127 0" result="hardAlpha"/>
<feOffset dy="4"/>
<feGaussianBlur stdDeviation="2"/>
<feComposite in2="hardAlpha" operator="out"/>
<feColorMatrix type="matrix" values="0 0 0 0 0 0 0 0 0 0 0 0 0 0 0 0 0 0 0.25 0"/>
<feBlend mode="normal" in2="BackgroundImageFix" result="effect1_dropShadow_422_6903"/>
<feBlend mode="normal" in="SourceGraphic" in2="effect1_dropShadow_422_6903" result="shape"/>
</filter>
</defs>
</svg>
