<svg width="200" height="200" viewBox="0 0 200 200" fill="none" xmlns="http://www.w3.org/2000/svg">
<mask id="mask0_422_6801" style="mask-type:luminance" maskUnits="userSpaceOnUse" x="0" y="0" width="200" height="200">
<path d="M200 0H0V200H200V0Z" fill="white"/>
</mask>
<g mask="url(#mask0_422_6801)">
<path d="M116.015 33.3299C116.015 33.3299 162.972 40.6599 159.412 107.412C159.399 107.66 164.841 111.264 165.267 111.649C169.062 115.074 172.246 119.459 173.639 124.588C178.596 142.855 160.871 161.677 146.537 166.672C141.183 168.538 135.524 169.444 129.854 169.608C92.9922 170.679 44.1894 147.307 41.683 101.661C41.5938 100.025 41.5705 98.3859 41.6133 96.7481C41.8352 88.0811 43.9321 79.6402 47.0922 71.8027C47.0908 71.803 67.606 21.0384 116.015 33.3299Z" fill="#A47539"/>
<g style="mix-blend-mode:multiply" opacity="0.1">
<path d="M160.6 108.117C160.092 109.36 159.584 110.948 159.442 111.857C158.837 115.753 160.173 119.777 162.494 122.669C164.699 125.416 167.847 127.197 170.895 127.869C171.924 128.095 173.171 128.212 174.26 128.249C173.115 116.964 163.906 110.193 160.6 108.117ZM94.4088 137.775C103.131 135.903 108.547 126.735 106.505 117.298C104.462 107.86 95.7362 101.727 87.014 103.599C78.2917 105.471 72.8761 114.639 74.9183 124.077C76.9604 133.514 85.6866 139.647 94.4088 137.775Z" fill="#DC2400"/>
</g>
<path opacity="0.1" d="M137.111 111.378C137.111 111.378 144.559 104.307 150.326 110.955L137.111 111.378Z" fill="black"/>
<path d="M67.656 146.609C42.8599 159.007 20.3547 127.918 27.5633 110.442C32.1616 99.2949 45.5689 98.4282 53.338 108.61C57.923 114.62 61.6328 122.301 63.7393 129.65" fill="#A47539"/>
<path opacity="0.1" d="M47.2326 118.866C50.4231 122.105 52.9878 126.908 56.14 129.587C55.5574 125.104 54.6275 120.317 52.4445 116.276C50.2283 112.173 46.1976 108.793 42.0936 109.071C37.0079 109.417 32.8203 115.326 32.2817 120.684C32.6033 117.478 39.0686 115.308 41.5361 115.612C45.4002 122.878 46.8963 137.198 46.8963 137.198C50.1154 129.091 48.8119 122.715 47.2326 118.866Z" fill="black"/>
<path fill-rule="evenodd" clip-rule="evenodd" d="M145.689 120.455C145.88 120.448 146.07 120.48 146.249 120.548C146.428 120.616 146.591 120.72 146.729 120.853C148.216 122.286 150.807 124.139 153.667 125.024C156.487 125.898 159.401 125.796 161.908 123.647C162.049 123.524 162.214 123.429 162.393 123.37C162.571 123.31 162.759 123.287 162.947 123.3C163.134 123.314 163.317 123.365 163.485 123.45C163.653 123.534 163.803 123.652 163.925 123.794C164.047 123.937 164.14 124.103 164.198 124.282C164.256 124.461 164.278 124.649 164.263 124.837C164.248 125.024 164.196 125.207 164.11 125.374C164.024 125.541 163.905 125.69 163.762 125.811C160.285 128.792 156.254 128.809 152.824 127.747C150.064 126.892 147.586 125.317 145.834 123.868C132.825 137.285 116.47 133.303 109.784 129.533C109.454 129.348 109.212 129.039 109.111 128.675C109.009 128.311 109.056 127.921 109.242 127.592C109.427 127.263 109.736 127.021 110.1 126.919C110.464 126.817 110.853 126.865 111.183 127.05C117.387 130.549 132.762 134.204 144.68 120.927C144.808 120.785 144.963 120.67 145.136 120.589C145.31 120.507 145.497 120.462 145.689 120.455Z" fill="#592125"/>
<path d="M114.881 103.056C118.026 102.999 121.175 104.133 123.961 105.825C125.632 104.118 126.435 101.2 125.807 98.1519C124.926 93.8748 121.596 91.0066 118.368 91.7469C115.14 92.4872 113.239 96.5556 114.121 100.833C114.285 101.636 114.56 102.368 114.881 103.056ZM156.107 103.578C156.571 102.553 156.843 101.3 156.817 99.9332C156.753 96.5349 154.933 93.7935 152.753 93.8121C150.572 93.8295 148.857 96.5997 148.921 99.9991C148.956 101.868 149.534 103.519 150.399 104.641C152.219 103.935 154.152 103.598 156.107 103.578Z" fill="#2A1200"/>
<path d="M126.685 77.945C121.812 77.1524 116.59 78.9735 113.085 82.6675C111.955 83.8584 111.639 85.971 112.82 87.3158C113.91 88.5602 115.895 88.9407 117.105 87.6643C117.465 87.2819 117.846 86.9208 118.247 86.5827C118.372 86.4779 118.719 86.292 118.828 86.1377C118.889 86.0975 118.949 86.0572 119.011 86.0184C119.393 85.7781 119.786 85.5571 120.19 85.3565C120.421 85.2428 120.654 85.1357 120.89 85.0351C120.965 85.0041 121.04 84.9742 121.115 84.9439C121.323 84.9079 121.56 84.7957 121.749 84.7441C122.485 84.544 123.238 84.4109 123.998 84.3461C124.237 84.3472 124.475 84.3426 124.714 84.3522C125.223 84.3736 125.73 84.4302 126.234 84.5114C127.809 84.7679 129.442 83.2175 129.489 81.5143C129.538 79.6397 128.372 78.2201 126.685 77.945ZM159.401 83.5432C157.632 81.1078 155.031 79.5097 152.226 79.0455C151.469 78.9205 150.585 79.2108 149.995 79.716C149.413 80.2136 148.925 81.0911 148.874 81.9097C148.822 82.7601 148.989 83.6725 149.52 84.3412C150.058 85.0191 150.734 85.4495 151.556 85.5866C151.69 85.6087 151.821 85.6465 151.955 85.6757C152.35 85.8121 152.733 85.9806 153.105 86.1783C153.532 86.4676 153.931 86.795 154.298 87.1566C154.419 87.3016 154.547 87.4405 154.66 87.5948C155.145 88.2613 155.923 88.7362 156.695 88.8402C157.435 88.9396 158.355 88.702 158.926 88.1683C159.518 87.6162 159.993 86.8506 160.047 85.9746C160.102 85.1014 159.914 84.2489 159.401 83.5432Z" fill="#71472D"/>
<path d="M138.129 54.751C135.298 57.3042 132.162 61.0261 128.69 65.1463C122.877 72.0461 116.122 80.062 108.286 85.5768C98.2264 92.6554 86.7397 96.4223 77.4663 98.1991C74.0503 102.175 72.7002 106.336 71.6357 109.618C70.4911 113.146 69.6766 115.657 66.9789 115.825C63.8132 108.471 57.968 96.4733 41.6888 101.905C27.9762 106.48 27.3081 122.004 31.7171 129.925C34.2043 134.338 44.2846 144.233 60.5639 142.061L71.0698 151.163C70.0523 153.087 68.132 155.844 61.8915 158.559C54.0911 161.954 17.8015 158.899 14.41 136.834C5.93122 129.479 -7.36359 108.931 7.28773 85.5768C11.7761 78.4225 18.0935 73.2972 25.5727 69.9986C25.4815 67.0745 25.4783 63.6839 25.6022 59.7782C26.2803 38.3925 46.2904 21.0803 61.8915 17.3463C77.1365 13.6976 109.222 14.9108 122.388 26.6875C165.303 10.6992 176.245 62.9711 174.705 82.808C182.682 98.5136 177.198 120.882 174.348 129.746C172.924 117.753 163.19 109.757 158.679 107.794C160.673 96.943 156.898 78.5246 154.761 70.6718C149.334 62.4421 142.218 56.8355 138.129 54.751Z" fill="#E9B729"/>
<path d="M145.973 112.678C149.199 110.812 156.916 107.586 162.254 109.463C165.332 110.545 167.539 112.996 169.48 115.151C171.587 117.492 173.382 119.485 175.639 119.004C175.756 118.98 175.85 119.14 175.757 119.216C173.706 120.898 166.515 126.35 161.715 126.588C155.913 126.875 153.097 124.084 148.744 119.77C148.315 119.345 147.872 118.905 147.409 118.452C146.035 122.101 140.985 126.918 129.455 132.71C108.431 143.271 94.6672 131.68 88.0211 123.814C87.936 123.714 88.1286 123.519 88.2422 123.585C90.7925 125.069 93.6804 123.757 100.981 120.382C104.325 118.836 107.327 117.251 110.12 115.775C117 112.142 122.613 109.178 128.95 109.124C136.078 109.064 143.547 111.371 145.768 112.513C145.838 112.567 145.906 112.622 145.973 112.678Z" fill="#71472D"/>
<path d="M126.79 115.484C130.693 113.751 138.383 115.077 141.74 115.957C129.994 115.585 126.65 119.944 117.226 125.003C109.688 129.05 102.32 126.912 99.5783 125.337C109.455 128.507 121.911 117.651 126.79 115.484ZM136.388 121.859C133.452 124.563 126.333 130.004 121.341 130.132C125.051 127.333 133.255 121.76 136.388 121.859ZM152.32 113.791C153.947 113.01 157.935 111.969 160.862 114.061C164.154 116.414 166.734 118.456 168.398 118.489C168.593 118.471 168.768 118.449 168.92 118.423C168.751 118.472 168.574 118.495 168.398 118.489C166.678 118.647 163.413 118.438 160.784 116.559C157.857 114.467 153.921 113.842 152.32 113.791Z" fill="#5E351B"/>
</g>
</svg>
