<svg width="200" height="200" viewBox="0 0 200 200" fill="none" xmlns="http://www.w3.org/2000/svg">
<mask id="mask0_422_6934" style="mask-type:luminance" maskUnits="userSpaceOnUse" x="0" y="0" width="200" height="200">
<path d="M200 0H0V200H200V0Z" fill="white"/>
</mask>
<g mask="url(#mask0_422_6934)">
<path d="M116.015 33.33C116.015 33.33 162.972 40.66 159.412 107.412C159.399 107.66 164.841 111.264 165.267 111.65C169.062 115.074 172.246 119.459 173.639 124.588C178.596 142.855 160.871 161.677 146.537 166.672C141.183 168.538 135.524 169.444 129.854 169.609C92.9922 170.68 44.1894 147.307 41.683 101.661C41.5938 100.025 41.5705 98.386 41.6133 96.7482C41.8352 88.0813 43.9321 79.6404 47.0922 71.8028C47.0908 71.8032 67.606 21.0385 116.015 33.33Z" fill="#E2BA87"/>
<g style="mix-blend-mode:multiply" opacity="0.1">
<path d="M160.6 108.117C160.092 109.36 159.584 110.948 159.442 111.857C158.837 115.753 160.173 119.777 162.494 122.67C164.699 125.416 167.847 127.197 170.895 127.869C171.924 128.096 173.171 128.212 174.26 128.249C173.115 116.964 163.906 110.193 160.6 108.117ZM94.4088 137.776C103.131 135.903 108.547 126.735 106.505 117.298C104.462 107.86 95.7362 101.727 87.014 103.599C78.2917 105.471 72.8761 114.639 74.9183 124.077C76.9604 133.515 85.6866 139.647 94.4088 137.776Z" fill="#DC2400"/>
</g>
<path opacity="0.1" d="M137.11 111.378C137.11 111.378 144.559 104.307 150.326 110.955L137.11 111.378Z" fill="black"/>
<path d="M67.656 146.609C42.8599 159.007 20.3547 127.918 27.5633 110.442C32.1616 99.295 45.5689 98.4283 53.338 108.61C57.923 114.62 61.6328 122.302 63.7393 129.65" fill="#E2BA87"/>
<path opacity="0.1" d="M47.2327 118.866C50.4231 122.105 52.9878 126.908 56.1401 129.587C55.5575 125.104 54.6276 120.317 52.4446 116.276C50.2284 112.173 46.1977 108.793 42.0937 109.071C37.0079 109.417 32.8203 115.326 32.2817 120.684C32.6034 117.478 39.0687 115.308 41.5361 115.612C45.4003 122.878 46.8964 137.198 46.8964 137.198C50.1154 129.091 48.812 122.715 47.2327 118.866Z" fill="black"/>
<path d="M148.001 123.641C149.075 124.257 156.583 114.826 161.582 117.695C163.269 118.664 164.557 120.316 165.524 122.101C167.648 126.028 168.375 130.799 167.52 135.2C166.308 141.423 162.111 146.517 157.173 149.894C143.886 158.979 133.346 157.262 119.165 152.003C108.003 147.864 92.7939 139.345 95.9446 123.974C101.491 96.9168 147.987 123.633 148.001 123.641Z" fill="#873C41"/>
<path d="M109.534 121.911C113.145 124.153 117.542 124.384 121.485 123.49C122.239 123.318 122.845 123.952 123.033 124.679C124.958 132.162 135.875 136.068 141.349 131.27C141.774 130.897 142.528 130.809 142.973 131.231C145.927 134.035 150.661 134.796 154.138 132.899C159.047 130.22 159.023 122.694 157.686 117.452C153.359 118.774 148.817 124.109 148.001 123.639C147.99 123.632 119.447 107.237 104.42 113.151C104.738 116.785 106.406 119.968 109.534 121.911Z" fill="white"/>
<path d="M150.474 151.016C142.667 143.849 133.067 139.847 123.334 137.006C115.008 134.576 105.634 133.002 97.2072 135.413C101.112 143.797 111.16 149.033 119.165 152.001C131.57 156.601 141.189 158.49 152.296 152.812C151.691 152.211 151.101 151.592 150.474 151.016Z" fill="#EE7E8B"/>
<path d="M125.504 99.9623C125.496 104.193 123.286 107.627 118.698 106.923C115.395 106.039 113.196 103.71 113.205 99.273C113.214 94.6243 115.921 91.6075 118.728 91.6022C122.479 91.5951 125.512 95.7315 125.504 99.9623ZM149.083 97.2951C151.097 97.4137 153.871 97.2031 155.734 95.9117C156.401 97.0834 156.787 98.5469 156.785 99.8857C156.78 102.722 155.496 105.767 152.212 105.417C149.455 105.123 148.752 101.505 148.755 99.7229C148.757 98.8829 148.871 98.0557 149.083 97.2951Z" fill="#2A1200"/>
<path d="M126.155 77.7483C121.258 77.1203 116.1 79.1163 112.721 82.9261C111.632 84.1544 111.387 86.2766 112.613 87.5808C113.745 88.7874 115.741 89.1009 116.907 87.7846C117.254 87.3904 117.623 87.0166 118.013 86.6653C118.134 86.5563 118.474 86.3589 118.578 86.2007C118.638 86.1587 118.696 86.1163 118.757 86.0757C119.13 85.8225 119.516 85.5884 119.913 85.3742C120.139 85.2528 120.369 85.1379 120.602 85.0297C120.676 84.9959 120.749 84.9635 120.824 84.9307C121.03 84.8879 121.264 84.7679 121.451 84.7098C122.12 84.5032 122.806 84.3521 123.5 84.2581C123.562 84.2499 123.623 84.2431 123.685 84.236C123.923 84.2292 124.161 84.2168 124.401 84.2182C124.91 84.2221 125.419 84.262 125.925 84.3258C127.508 84.5296 129.088 82.9246 129.077 81.2211C129.063 79.3458 127.85 77.966 126.155 77.7483ZM157.312 91.268C154.667 92.7044 151.632 93.0272 148.901 92.2381C148.164 92.025 147.491 91.3827 147.175 90.672C146.865 89.9723 146.801 88.9702 147.108 88.2093C147.426 87.4195 147.97 86.6681 148.737 86.2933C149.515 85.9129 150.309 85.8153 151.11 86.0454C151.241 86.0835 151.376 86.1056 151.509 86.1369C151.925 86.184 152.342 86.1964 152.764 86.1786C153.273 86.1012 153.775 85.9776 154.261 85.8092C154.433 85.7305 154.608 85.6603 154.776 85.5694C155.501 85.1769 156.408 85.0832 157.149 85.3218C157.859 85.5502 158.588 86.1612 158.874 86.889C159.171 87.6421 159.27 88.5377 158.942 89.3517C158.616 90.1633 158.079 90.8519 157.312 91.268Z" fill="#71472D"/>
<path d="M132.503 53.36C120.928 69.4225 94.7526 102.44 58.7832 114.219C56.3497 110.055 52.0166 105.688 44.1817 105.831C34.388 106.009 30.8267 113.148 30.8267 113.148C30.8267 113.148 19.4304 132.245 45.7843 144.381C53.085 145.809 55.3999 145.809 61.2761 143.31C65.253 146.404 77.8719 156.946 82.288 158.659C81.1601 164.667 79.1689 179.647 81.8756 186.501C76.7116 186.977 64.1252 189.606 54.1534 184.181C53.1495 178.069 52.2663 170.065 53.8383 167.013C51.9618 170.087 48.5771 177.102 48.5771 181.147C42.879 179.183 30.2006 173.722 25.0723 167.583C17.1191 130.103 14.2665 39.2606 94.7526 31.5863C101.816 30.7535 119.824 31.4792 131.791 39.6176C146.748 49.7905 154.227 63.3545 157.076 76.9184C150.962 74.0628 137.489 65.3534 132.503 53.36ZM161.884 181.147C159.462 177.72 160.875 162.169 161.884 156.874C151.912 165.262 146.036 169.367 125.558 169.903C129.12 175.257 143.009 177.22 144.611 177.934L147.46 175.971V178.826C151.307 180.111 158.679 180.908 161.884 181.147Z" fill="#238D80"/>
<mask id="mask1_422_6934" style="mask-type:alpha" maskUnits="userSpaceOnUse" x="94" y="31" width="64" height="46">
<path d="M130.901 39.2606C118.934 31.1223 101.816 30.7535 94.7527 31.5863C96.7032 42.1758 102.72 64.7109 119.326 70.1364C124.195 63.8121 130.007 57.9257 132.503 53.36C137.489 65.3534 150.963 74.0628 157.076 76.9184C154.227 63.3545 145.858 49.4336 130.901 39.2606Z" fill="#E2BA87"/>
</mask>
<g mask="url(#mask1_422_6934)">
<path d="M128.205 51.5089C128.205 51.5089 125.258 48.0076 118.828 48.5926C118.828 48.5926 123.383 46.1137 126.329 46.4053C126.329 46.4053 118.292 40.425 106.505 44.2179C106.505 44.2179 114.809 38.3836 121.374 39.1129C121.374 39.1129 114.409 36.0506 109.988 36.7799C109.988 36.7799 113.471 32.4037 118.025 32.5494C118.025 32.5494 114.408 26.1318 108.782 24.0905C108.782 24.0905 120.034 27.3001 122.979 29.6331C129.543 32.4037 135.571 40.5724 135.571 40.5724C133.562 39.4059 130.346 39.6976 130.346 39.6976C135.571 42.9072 139.59 48.8857 139.59 48.8857C137.045 47.1359 133.963 47.7192 133.963 47.7192C138.92 52.6786 140.527 59.0961 140.527 59.0961C139.857 57.0548 135.035 54.5743 135.035 54.5743C136.91 57.9296 137.311 63.3249 137.311 63.3249L133.292 58.0738C133.292 58.0738 125.122 64.929 122.978 65.8039C122.978 65.8039 129.14 59.3863 129.542 56.4697C129.542 56.4697 120.299 58.9487 112.932 59.971C112.934 59.9678 123.249 52.0921 128.205 51.5089Z" fill="black" fill-opacity="0.15"/>
</g>
<path d="M107.573 69.0657C102.588 75.3718 86.3479 90.6966 61.2761 101.548C69.2296 96.5505 89.6243 83.0579 107.573 69.0657ZM41.3326 101.548C55.8628 70.7076 85.3745 53.2412 98.3139 48.3628C64.9799 54.0739 42.7571 87.0318 35.8125 102.797C37.0946 102.226 40.0267 101.726 41.3326 101.548ZM33.8538 138.849C34.5661 139.741 36.6316 141.133 37.7713 141.704C37.3119 149.53 36.6156 164.718 36.9728 171.455C37.0672 172.406 37.1566 173.266 37.2371 174.008C37.117 173.427 37.0309 172.554 36.9728 171.455C36.3026 164.695 35.3845 153.316 35.6345 147.058C34.3285 151.817 32.1087 153.412 33.6757 173.115C32.0137 160.384 29.4377 146.559 33.8538 138.849ZM152.98 163.835C153.978 163.406 155.651 162.229 156.364 161.693C155.082 163.835 155.592 174.603 156.008 179.719C155.153 179.005 154.583 176.328 154.405 175.079C153.835 176.935 152.743 177.042 152.98 179.719C151.413 176.149 152.802 169.546 152.98 163.835ZM72.8504 160.979C71.141 176.542 71.9601 180.79 73.3846 187.393H66.2619C63.6978 174.829 70.2389 168.832 72.8504 160.979Z" fill="black" fill-opacity="0.15"/>
</g>
</svg>
